<svg xmlns="http://www.w3.org/2000/svg" viewBox="297 429 65.404 51">
  <defs>
    <style>
      .cls-1 {
        fill: #616161;
      }
    </style>
  </defs>
  <g id="noun_986369_cc" transform="translate(297.2 422)">
    <g id="Group_1" data-name="Group 1">
      <path id="Path_1" data-name="Path 1" class="cls-1" d="M28.5,26a9.8,9.8,0,1,0-9.8,9.8A9.816,9.816,0,0,0,28.5,26Zm-9.8,8.3A8.3,8.3,0,1,1,27,26,8.28,8.28,0,0,1,18.7,34.3Z"/>
      <path id="Path_2" data-name="Path 2" class="cls-1" d="M61.5,16.2H34.9a4.5,4.5,0,0,0-4.6-1.8,4.418,4.418,0,0,0-2.2-4.8,4.532,4.532,0,0,0-5.2.5A4.321,4.321,0,0,0,18.7,7a4.537,4.537,0,0,0-4.3,3.1,4.532,4.532,0,0,0-5.2-.5A4.649,4.649,0,0,0,7,14.4a4.529,4.529,0,0,0-4.3,7.4A4.274,4.274,0,0,0-.2,26a4.537,4.537,0,0,0,3.1,4.3,4.516,4.516,0,0,0-.5,5.2A4.687,4.687,0,0,0,6,37.7L0,55l6-1.3L9.8,58,15,43a4.527,4.527,0,0,0,7.3.1L27.4,58l3.8-4.3,6,1.3-2-5.9H61.5a3.691,3.691,0,0,0,3.7-3.7V20A3.653,3.653,0,0,0,61.5,16.2ZM9.2,55.1l-2.7-3L2.3,53,7,39.1a4.433,4.433,0,0,0,2.2,3.3,4.583,4.583,0,0,0,4.4,0Zm9.5-11.7a2.946,2.946,0,0,1-3-3v-.9l-1.4-.4v.1c0,.1-.1.2-.1.3-.1.1-.1.2-.2.3a2.984,2.984,0,0,1-2.6,1.5,2.822,2.822,0,0,1-1.5-.4,2.68,2.68,0,0,1-1-3.9c.1-.1.1-.2.2-.3s.1-.2.2-.2l.1-.1-1.1-1c-.1.1-.2.1-.3.2s-.2.1-.3.2a2.822,2.822,0,0,1-1.5.4,2.984,2.984,0,0,1-2.6-1.5,3.062,3.062,0,0,1,1.1-4.1c.1-.1.2-.1.4-.2a.6.6,0,0,1,.4-.1L5,28.9c-.1,0-.3.1-.4.1H4.2a3.013,3.013,0,1,1,.4-6H5l.4-1.4H5.3c-.1,0-.2-.1-.3-.1-.1-.1-.2-.1-.4-.2a3,3,0,0,1,3-5.2c.1.1.2.1.3.2s.2.2.3.2l1.1-1.1c-.1-.1-.2-.2-.2-.3-.1.1-.2,0-.2-.1A2.872,2.872,0,0,1,10,10.9a2.822,2.822,0,0,1,1.5-.4A2.984,2.984,0,0,1,14.1,12c.1.1.1.2.2.3a.6.6,0,0,1,.1.4l1.4-.4c0-.1-.1-.3-.1-.4v-.4a2.946,2.946,0,0,1,3-3,3.009,3.009,0,0,1,3,3v1.1L23,13l.3-.6c.1-.1.1-.2.2-.4a2.984,2.984,0,0,1,2.6-1.5,2.822,2.822,0,0,1,1.5.4A3.062,3.062,0,0,1,28.7,15c-.1.1-.1.2-.2.3l-.2.2-.3.1h0l1.1,1,.1-.1c.1-.1.2-.1.2-.2.1-.1.2-.2.3-.2a2.822,2.822,0,0,1,1.5-.4,2.984,2.984,0,0,1,2.6,1.5,3.062,3.062,0,0,1-1.1,4.1c-.1.1-.2.1-.4.2a.6.6,0,0,1-.4.1l.4,1.4c.1,0,.3-.1.4-.1h.4a3.009,3.009,0,0,1,3,3,2.946,2.946,0,0,1-3,3h-.4l-.9-.1v.8l-.2.6.6.3c.1.1.3.1.4.2A2.827,2.827,0,0,1,34,32.5a3.008,3.008,0,0,1-4.4,3.4c-.1-.1-.2-.1-.3-.2s-.2-.1-.2-.2l-.1-.1-1,1.1.2.2c.1.1.1.2.2.3a3.062,3.062,0,0,1-1.1,4.1,2.822,2.822,0,0,1-1.5.4A2.984,2.984,0,0,1,23.2,40c-.1-.1-.1-.2-.2-.3a.6.6,0,0,1-.1-.4l-1.4.4c0,.1.1.3.1.4v.4A2.84,2.84,0,0,1,18.7,43.4Zm12,8.7-2.7,3L23.6,42.4a4.711,4.711,0,0,0,4.6.1,4.657,4.657,0,0,0,2.2-3.1L34.9,53Zm33.1-6.8a2.22,2.22,0,0,1-2.2,2.2H34.7l-3.4-9.9a4.887,4.887,0,0,0,3.8-2.2,4.453,4.453,0,0,0,.5-3.4,4,4,0,0,0-1-1.8,4.532,4.532,0,0,0,0-8.6,4.5,4.5,0,0,0,1-4H61.5a2.22,2.22,0,0,1,2.2,2.2V45.3Z"/>
      <rect id="Rectangle_1" data-name="Rectangle 1" class="cls-1" width="20.1" height="1.5" transform="translate(40 22.2)"/>
      <rect id="Rectangle_2" data-name="Rectangle 2" class="cls-1" width="16.5" height="1.5" transform="translate(43.6 27.1)"/>
      <rect id="Rectangle_3" data-name="Rectangle 3" class="cls-1" width="22.3" height="1.5" transform="translate(37.8 32.1)"/>
      <rect id="Rectangle_4" data-name="Rectangle 4" class="cls-1" width="19.6" height="1.5" transform="translate(40.5 37.1)"/>
      <rect id="Rectangle_5" data-name="Rectangle 5" class="cls-1" width="24.6" height="1.5" transform="translate(35.5 42)"/>
    </g>
  </g>
</svg>
