<svg xmlns="http://www.w3.org/2000/svg" xmlns:xlink="http://www.w3.org/1999/xlink" viewBox="0 -59 1920 500">
  <defs>
    <style>
      .cls-1 {
        clip-path: url(#clip-Web_1920_1);
      }

      .cls-2, .cls-3 {
        fill: #fff;
      }

      .cls-2 {
        font-size: 250px;
        font-family: AvenirNext-UltraLight, Avenir Next;
        font-weight: 100;
      }
    </style>
    <clipPath id="clip-Web_1920_1">
      <rect y="-59" width="1920" height="500"/>
    </clipPath>
  </defs>
  <g id="Web_1920_1" data-name="Web 1920 – 1" class="cls-1">
    <g id="Group_1" data-name="Group 1" transform="translate(-36 -344)">
      <text id="MIKSI" class="cls-2" transform="translate(176 684)"><tspan x="0" y="0">MIKSI</tspan></text>
      <g id="rails-logo" transform="translate(820.021 334.997)">
        <path id="Path_1" data-name="Path 1" class="cls-3" d="M348.113,201.233v45.484h82.174c16.837,0,45.736-12.313,46.741-46.741V182.385c0-29.4-24.124-46.741-46.741-46.741H389.325V114.536h81.168V68.8h-77.9c-20.1,0-46.992,16.585-46.992,47.495v15.832c0,30.909,26.637,46.741,46.992,46.741,56.541.251-13.57,0,38.7,0v22.114" transform="translate(519.85 103.486)"/>
        <path id="Path_2" data-name="Path 2" class="cls-3" d="M234.793,190.932s43.977-3.769,43.977-60.562S225.495,68.3,225.495,68.3H129.5V247.473h48.249V204.251l41.715,43.223h71.368Zm-18.6-36.689H177.749V113.282h38.7s10.806,4.021,10.806,20.355S216.2,154.243,216.2,154.243Z" transform="translate(192.901 102.729)"/>
        <path id="Path_3" data-name="Path 3" class="cls-3" d="M293.943,68.8h-49c-34.93,0-46.741,31.663-46.741,46.741V246.717h49V215.305H293.19v31.412h47.495V115.541C340.684,77.344,306.006,68.8,293.943,68.8Zm-.754,95.743H246.951V121.069s0-9.8,15.329-9.8h16.837c13.57,0,13.821,9.8,13.821,9.8v43.474Z" transform="translate(296.841 103.486)"/>
        <rect id="Rectangle_3" data-name="Rectangle 3" class="cls-3" width="51.013" height="177.917" transform="translate(659.891 172.286)"/>
        <path id="Path_4" data-name="Path 4" class="cls-3" d="M343.162,200.73V68.8H292.4V246.717H411.765V200.73Z" transform="translate(439.361 103.486)"/>
        <path id="Path_5" data-name="Path 5" class="cls-3" d="M9,335H207.523s-37.946-173.142,87.7-243.254c27.391-13.319,114.591-63.075,257.326,42.469,4.523-3.769,8.8-6.785,8.8-6.785S430.673-2.991,285.173,11.584c-73.127,6.534-163.091,73.127-215.863,161.08S9,335,9,335Z" transform="translate(10.591 15.202)"/>
        <path id="Path_6" data-name="Path 6" class="cls-3" d="M9,335H207.523s-37.946-173.142,87.7-243.254c27.391-13.319,114.591-63.075,257.326,42.469,4.523-3.769,8.8-6.785,8.8-6.785S430.673-2.991,285.173,11.584c-73.127,6.534-163.091,73.127-215.863,161.08S9,335,9,335Z" transform="translate(10.591 15.202)"/>
        <path id="Path_7" data-name="Path 7" class="cls-3" d="M9,335H207.523s-37.946-173.142,87.7-243.254c27.391-13.319,114.591-63.075,257.326,42.469,4.523-3.769,8.8-6.785,8.8-6.785S430.673-2.991,285.173,11.584C211.8,18.118,121.832,84.711,69.06,172.664S9,335,9,335Z" transform="translate(10.591 15.202)"/>
        <path id="Path_8" data-name="Path 8" class="cls-3" d="M188.276,31.932,189.281,15.1c-2.262-1.256-8.544-4.272-24.376-8.8L163.9,22.885C172.193,25.65,180.234,28.665,188.276,31.932Z" transform="translate(244.947 8.926)"/>
        <path id="Path_9" data-name="Path 9" class="cls-3" d="M164.705,37.7,163.7,53.532a140.132,140.132,0,0,1,24.878,3.016l1.005-15.58A177.952,177.952,0,0,0,164.705,37.7Z" transform="translate(244.644 56.433)"/>
        <path id="Path_10" data-name="Path 10" class="cls-3" d="M143.137,15.729h2.513L140.624.4A200.509,200.509,0,0,0,116.5,1.908l4.775,14.826A212.15,212.15,0,0,1,143.137,15.729Z" transform="translate(173.233 0)"/>
        <path id="Path_11" data-name="Path 11" class="cls-3" d="M131.9,48.141l5.78,17.339a158.986,158.986,0,0,1,21.863-8.8L154.014,40.1A182.323,182.323,0,0,0,131.9,48.141Z" transform="translate(196.532 60.064)"/>
        <path id="Path_12" data-name="Path 12" class="cls-3" d="M105.109,27.439,93.8,10.1c-6.282,3.267-12.816,6.785-19.6,10.806L85.76,38.5C92.293,34.476,98.576,30.706,105.109,27.439Z" transform="translate(109.235 14.676)"/>
        <path id="Path_13" data-name="Path 13" class="cls-3" d="M107,72.137,119.062,90.23a139.534,139.534,0,0,1,14.826-17.842L122.58,55.3A139.023,139.023,0,0,0,107,72.137Z" transform="translate(158.86 83.061)"/>
        <path id="Path_14" data-name="Path 14" class="cls-3" d="M92.5,110.842l20.355,16.083a200.687,200.687,0,0,1,5.277-29.4L100.039,83.2A238.93,238.93,0,0,0,92.5,110.842Z" transform="translate(136.922 125.272)"/>
        <path id="Path_15" data-name="Path 15" class="cls-3" d="M70.638,56.08,52.8,40.5C46.262,46.782,39.98,53.065,34.2,59.347L53.55,75.933A254.5,254.5,0,0,1,70.638,56.08Z" transform="translate(48.717 60.669)"/>
        <path id="Path_16" data-name="Path 16" class="cls-3" d="M43.464,97.754,14.565,87.2C9.79,98.006,4.513,110.57,2,117.355L30.9,127.91C34.166,119.366,39.443,107.052,43.464,97.754Z" transform="translate(0 131.324)"/>
        <path id="Path_17" data-name="Path 17" class="cls-3" d="M91,119.6a255.292,255.292,0,0,0,3.016,31.663l30.155,10.806A332.14,332.14,0,0,1,118.14,129.4Z" transform="translate(134.653 180.344)"/>
      </g>
    </g>
  </g>
</svg>
