<svg xmlns="http://www.w3.org/2000/svg" viewBox="278 426 65.504 55.7">
  <defs>
    <style>
      .cls-1 {
        fill: #fafafa;
      }
    </style>
  </defs>
  <g id="noun_995864_cc" transform="translate(278.3 421.4)">
    <g id="Group_2" data-name="Group 2">
      <path id="Path_6" data-name="Path 6" class="cls-1" d="M61.5,4.6H3.5A3.778,3.778,0,0,0-.3,8.3v52H65.2V8.3A3.629,3.629,0,0,0,61.5,4.6ZM3.5,6.1h58a2.308,2.308,0,0,1,2.3,2.2v4H1.3v-4A2.22,2.22,0,0,1,3.5,6.1ZM1.3,58.9v-45H63.8v45Z"/>
      <rect id="Rectangle_9" data-name="Rectangle 9" class="cls-1" width="1.5" height="1.5" transform="translate(53.1 8.5)"/>
      <rect id="Rectangle_10" data-name="Rectangle 10" class="cls-1" width="1.5" height="1.5" transform="translate(49.3 8.5)"/>
      <rect id="Rectangle_11" data-name="Rectangle 11" class="cls-1" width="1.5" height="1.5" transform="translate(56.9 8.5)"/>
      <rect id="Rectangle_12" data-name="Rectangle 12" class="cls-1" width="38.5" height="1.5" transform="translate(6.1 8.5)"/>
      <path id="Path_7" data-name="Path 7" class="cls-1" d="M27.5,46V41.8L25,41.4a6.715,6.715,0,0,0-1-2.3l1.4-2-3-3-2,1.4a9.172,9.172,0,0,0-2.3-.9l-.5-2.4H13.4L13,34.5a6.715,6.715,0,0,0-2.3,1l-2-1.4-3,3,1.4,2a9.172,9.172,0,0,0-.9,2.3l-2.4.5v4.2l2.4.4a9.432,9.432,0,0,0,1,2.3l-1.4,2,3,2.9,2-1.4a15.955,15.955,0,0,0,2.3,1l.5,2.4h4.2l.4-2.4a9.432,9.432,0,0,0,2.3-1l2,1.4,2.9-3-1.4-2a15.955,15.955,0,0,0,1-2.3Zm-3.7-.8-.1.5a8.083,8.083,0,0,1-1.1,2.7l-.3.4,1.3,1.8-1.2,1.2-1.8-1.2-.4.3a11.065,11.065,0,0,1-2.7,1.2l-.5.1-.4,2.2H14.9l-.4-2.2-.6-.2a8.083,8.083,0,0,1-2.7-1.1l-.4-.3L9,51.9,7.8,50.7,9,48.9l-.3-.4a13.069,13.069,0,0,1-1.2-2.7l-.1-.5-2.2-.4V43.2l2.2-.4.1-.5a8.083,8.083,0,0,1,1.1-2.7l.3-.4L7.6,37.4l1.2-1.2,1.8,1.2.4-.3a9.3,9.3,0,0,1,2.7-1.2l.5-.1.4-2.2h1.7l.4,2.2.5.1A9.612,9.612,0,0,1,20,37l.4.3L22.2,36l1.2,1.2L22.3,39l.3.4a9.3,9.3,0,0,1,1.2,2.7l.1.5L26,43v1.7Z"/>
      <path id="Path_8" data-name="Path 8" class="cls-1" d="M15.6,38.6a5.464,5.464,0,0,0-3.8,1.6A4.974,4.974,0,0,0,10.3,44a5.335,5.335,0,0,0,5.3,5.3h0a5.464,5.464,0,0,0,3.8-1.6,4.974,4.974,0,0,0,1.5-3.8A5.209,5.209,0,0,0,15.6,38.6Zm2.8,8.1a3.864,3.864,0,0,1-2.7,1.1v0A3.8,3.8,0,0,1,11.9,44a3.757,3.757,0,0,1,3.8-3.8A3.8,3.8,0,0,1,19.5,44,4.049,4.049,0,0,1,18.4,46.7Z"/>
      <path id="Path_9" data-name="Path 9" class="cls-1" d="M59.3,18.5a2.958,2.958,0,0,0-1,.2,2.464,2.464,0,0,0-2.4-2.1,2.413,2.413,0,0,0-1.7.7,2.414,2.414,0,0,0-3.4,0,2.609,2.609,0,0,0-1.7-.7A2.433,2.433,0,0,0,46.7,19v1.2a4.063,4.063,0,0,0-2.7-1h-.8V21h-9a7.753,7.753,0,0,0-13.6.7l-.5,1.1h4.6L26.5,25l-1.8,2.1H20.1l.5,1.1a7.759,7.759,0,0,0,13.7.9h9v1.6a2.234,2.234,0,0,0,1,1.8l2.4,1.7v3.5h1.5V33.4l-3.1-2.2a.713.713,0,0,1-.3-.6V20.7a2.613,2.613,0,0,1,1.9,2.6v5.6h1.5V25.8a2.92,2.92,0,0,0,.9.2,2.413,2.413,0,0,0,1.7-.7,2.414,2.414,0,0,0,3.4,0,2.414,2.414,0,0,0,3.4,0,2.413,2.413,0,0,0,1.7.7,3.553,3.553,0,0,0,1-.2v5.1a1.445,1.445,0,0,1-.2.7l-.6,1.2a4.711,4.711,0,0,0-.4,1.7v4h1.5v-4a3.553,3.553,0,0,1,.2-1l.6-1.2a3.194,3.194,0,0,0,.3-1.4V21A2.336,2.336,0,0,0,59.3,18.5ZM43.2,27.6H33.4l-.2.4a6.317,6.317,0,0,1-5.5,3.3,6,6,0,0,1-5.1-2.7h2.9L28.6,25l-3.1-3.7H22.7a6.159,6.159,0,0,1,5-2.5,6.317,6.317,0,0,1,5.5,3.3l.2.4h9.8Zm5.9-3.1a.9.9,0,0,1-.9-.9V19a.9.9,0,0,1,.9-.9,1,1,0,0,1,1,1v4.5A.987.987,0,0,1,49.1,24.5Zm3.4,0a1,1,0,0,1-1-1h0V19h0a1,1,0,0,1,2,0v4.5A.945.945,0,0,1,52.5,24.5Zm3.4,0a1,1,0,0,1-1-1V19a1,1,0,1,1,2,0v4.6A.923.923,0,0,1,55.9,24.5Zm4.4-.9a1,1,0,0,1-2,0V21a1,1,0,0,1,2,0v2.6Z"/>
      <rect id="Rectangle_13" data-name="Rectangle 13" class="cls-1" width="31.4" height="1.5" transform="translate(28.6 53.3)"/>
      <rect id="Rectangle_14" data-name="Rectangle 14" class="cls-1" width="26.6" height="1.5" transform="translate(33.3 48.3)"/>
      <rect id="Rectangle_15" data-name="Rectangle 15" class="cls-1" width="20.3" height="1.5" transform="translate(39.7 43.2)"/>
    </g>
  </g>
</svg>
