<svg xmlns="http://www.w3.org/2000/svg" viewBox="448 320 65.4 57">
  <g id="Group_1" data-name="Group 1" transform="translate(448.2 316)">
    <path id="Path_1" data-name="Path 1" d="M47.2,27.9l2.5-3.6-4.6-4.7-3.6,2.5a16.84,16.84,0,0,0-4.8-2l-.8-4.3H29.3L28.5,20a16.84,16.84,0,0,0-4.8,2l-3.6-2.5-4.7,4.6,2.5,3.6a16.84,16.84,0,0,0-2,4.8l-4.3.8v6.6l4.3.8a16.84,16.84,0,0,0,2,4.8l-2.5,3.6,4.7,4.7,3.6-2.5a16.84,16.84,0,0,0,4.8,2l.8,4.3h6.6l.8-4.3a16.84,16.84,0,0,0,4.8-2l3.6,2.5,4.7-4.7-2.5-3.6a16.84,16.84,0,0,0,2-4.8l4.3-.8V33.3l-4.3-.8A23.478,23.478,0,0,0,47.2,27.9Zm4.8,11-4.1.7-.1.5a14.84,14.84,0,0,1-2.2,5.2l-.3.4,2.3,3.4L44.8,52l-3.4-2.4-.4.3A15.8,15.8,0,0,1,35.8,52l-.5.1-.8,4.1H30.4l-.7-4.1-.6-.1a14.84,14.84,0,0,1-5.2-2.2l-.4-.3-3.4,2.3L17.2,49l2.4-3.4-.3-.4A14.615,14.615,0,0,1,17.2,40l-.2-.6-4-.7V34.6l4.1-.7.1-.5a16,16,0,0,1,2.2-5.2l.3-.4-2.3-3.4,2.9-2.9,3.4,2.4.4-.3a14.615,14.615,0,0,1,5.2-2.1l.5-.1.8-4.1h4.1l.7,4.1.5.1a16,16,0,0,1,5.2,2.2l.4.3,3.4-2.3,2.9,2.9L45.4,28l.3.4a15.8,15.8,0,0,1,2.1,5.2l.2.4,4.1.8Z"/>
    <path id="Path_2" data-name="Path 2" d="M32.5,24.5A12.4,12.4,0,0,0,20.2,36.7,12.122,12.122,0,0,0,32.3,49h.1A12.4,12.4,0,0,0,44.7,36.8,12.123,12.123,0,0,0,32.5,24.5Zm0,23v0a10.349,10.349,0,0,1-7.6-3.2,10.656,10.656,0,0,1-3.1-7.6A10.8,10.8,0,0,1,32.6,26a10.349,10.349,0,0,1,7.6,3.2,10.656,10.656,0,0,1,3.1,7.6A10.863,10.863,0,0,1,32.5,47.5Z"/>
    <path id="Path_3" data-name="Path 3" d="M35.8,34.7l2.4,2-2.4,2,1,1.1,3.8-3.1-3.8-3.1Z"/>
    <path id="Path_4" data-name="Path 4" d="M28.2,33.6l-3.8,3.1,3.8,3.1,1-1.1-2.4-2,2.4-2Z"/>
    <rect id="Rectangle_1" data-name="Rectangle 1" width="1.5" height="11.3" transform="translate(30.642 42.04) rotate(-153.686)"/>
    <path id="Path_5" data-name="Path 5" d="M-.2,4V61H65.2V4ZM63.7,5.5V12H1.3V5.5ZM1.3,59.5V13.4H63.7V59.5Z"/>
    <rect id="Rectangle_2" data-name="Rectangle 2" width="1.5" height="1.5" transform="translate(54.9 8)"/>
    <rect id="Rectangle_3" data-name="Rectangle 3" width="1.5" height="1.5" transform="translate(58.7 8)"/>
    <rect id="Rectangle_4" data-name="Rectangle 4" width="1.5" height="1.5" transform="translate(51.1 8)"/>
    <rect id="Rectangle_5" data-name="Rectangle 5" width="40.3" height="1.5" transform="translate(5.7 8)"/>
  </g>
</svg>
