<?xml version="1.0" encoding="UTF-8"?>
<svg width="1203px" height="1080px" viewBox="0 0 1203 1080" version="1.1" xmlns="http://www.w3.org/2000/svg" xmlns:xlink="http://www.w3.org/1999/xlink">
    <!-- Generator: Sketch 42 (36781) - http://www.bohemiancoding.com/sketch -->
    <title>Group</title>
    <desc>Created with Sketch.</desc>
    <defs>
        <polyline id="path-1" points="0 0 1217.60249 0 1217.60249 1217.54483 0 1217.54483"></polyline>
    </defs>
    <g id="Page-1" stroke="none" stroke-width="1" fill="none" fill-rule="evenodd">
        <g id="Ideas-Illustrations">
            <g id="Imported-Layers" transform="translate(-15.000000, -63.000000)">
                <g id="Group">
                    <path d="M670.20146,1201.6026 L611.405924,1201.6026 L611.405924,1208.98397 L670.20146,1208.98397 L670.20146,1201.6026 M670.20146,1179.44582 L611.405924,1179.44582 L611.405924,1186.82719 L670.20146,1186.82719 L670.20146,1179.44582 M670.20146,1157.28481 L611.405924,1157.28481 L611.405924,1164.67041 L670.20146,1164.67041 L670.20146,1157.28481 M670.20146,1135.12381 L611.405924,1135.12381 L611.405924,1142.5094 L670.20146,1142.5094 L670.20146,1135.12381 M670.20146,1112.95857 L611.405924,1112.95857 L611.405924,1120.34417 L670.20146,1120.34417 L670.20146,1112.95857 M670.20146,1090.78911 L611.405924,1090.78911 L611.405924,1098.1747 L670.20146,1098.1747 L670.20146,1090.78911 M670.20146,1068.60697 L611.405924,1068.60697 L611.405924,1075.99679 L670.20146,1075.99679 L670.20146,1068.60697 M670.20146,1046.41637 L611.405924,1046.41637 L611.405924,1053.81041 L670.20146,1053.81041 L670.20146,1046.41637 M670.20146,1024.19617 L611.405924,1024.19617 L611.405924,1031.59868 L670.20146,1031.59868 L670.20146,1024.19617 M611.49472,1001.1051 C611.435522,1003.16816 611.405924,1005.23968 611.405924,1007.32388 L611.405924,1009.33621 L670.20146,1009.33621 L670.20146,1007.32388 C670.20146,1005.80194 670.222602,1004.29692 670.264886,1002.80036 L611.49472,1001.10932 L611.49472,1001.1051 M613.7569,975.616979 C613.342519,978.411414 612.974651,981.231214 612.665979,984.076379 L671.114789,990.443124 C671.338893,988.380062 671.60528,986.329683 671.909723,984.296214 L613.7569,975.616979 M618.970484,950.703814 C618.243204,953.409469 617.558208,956.148945 616.923952,958.913786 L674.226872,972.070034 C674.696221,970.032338 675.203626,968.003097 675.744858,965.98231 L618.970484,950.703814 M626.750692,926.847545 C625.765481,929.426372 624.814097,932.030566 623.904997,934.664352 L679.474284,953.866048 C680.171965,951.84949 680.903474,949.837159 681.673038,947.829055 L626.750692,926.847545 M636.509779,904.301828 C635.338519,906.73269 634.19263,909.188917 633.072111,911.67051 L686.683661,935.814255 C687.584304,933.814607 688.514547,931.819186 689.478616,929.819538 L636.509779,904.301828 M647.66,883.028614 C646.361889,885.328421 645.08492,887.645138 643.824865,889.987221 L695.588616,917.859697 C696.662623,915.868503 697.762,913.873083 698.886747,911.88189 L647.66,883.028614 M711.660664,869.652531 L704.971377,874.002717 L717.204062,881.920986 C718.506401,879.912883 719.821426,877.896324 721.144907,875.875538 L711.660664,869.652531 M659.638983,862.879938 C658.277446,865.069828 656.924367,867.268172 655.583972,869.487655 L705.880478,899.930503 C706.273716,899.283683 706.662727,898.64109 707.060194,897.994269 L706.899516,898.091503 C705.685972,896.104538 704.451287,894.113345 703.199689,892.117924 L704.91218,891.048345 L659.638983,862.879938 M731.82155,856.547014 L725.064609,860.939476 L729.199958,863.687407 C730.561495,861.641255 731.923031,859.586648 733.293024,857.519359 L731.82155,856.547014 M691.668913,856.542786 L684.920429,861.0198 L698.30746,869.686352 L705.000976,865.285434 L691.668913,856.542786 M671.981606,843.635966 C670.603156,845.732848 669.224706,847.846641 667.850484,849.96889 L681.427792,858.758041 C680.768166,857.768786 680.112768,856.779531 679.453142,855.781821 L684.954256,852.141869 L671.981606,843.635966 M711.732547,843.230117 L705.051716,847.664855 L718.366865,856.496283 L725.081522,852.078455 L711.732547,843.230117 M691.732339,829.972407 L684.992311,834.356414 L698.392028,843.2428 L705.077087,838.816517 L691.732339,829.972407 M731.918803,829.832897 L725.149176,834.331048 L738.65883,843.149793 L740.71382,841.801193 C741.200083,842.545248 741.686346,843.285076 742.176837,844.029131 C743.335412,842.253545 744.493986,840.465276 745.652561,838.668552 L731.918803,829.832897 M684.286173,825.038814 C683.93099,825.575717 683.575806,826.116848 683.216394,826.653752 L685.000768,825.512303 L684.286173,825.038814 M711.821343,816.90071 L705.123599,821.259352 L718.455661,829.959724 L725.187232,825.503848 L711.821343,816.90071 M696.210187,806.855966 C694.916304,808.859841 693.613965,810.872172 692.298941,812.884503 L698.446997,816.90071 L705.148969,812.605483 L696.210187,806.855966 M707.419606,788.876041 C707.263156,789.138152 707.106706,789.400262 706.950256,789.658145 C707.677536,790.871462 708.413273,792.084779 709.157467,793.293869 L705.187024,795.724731 L753.826007,825.711 C755.179087,823.52111 756.519481,821.31431 757.855647,819.0906 L707.419606,788.876041 M717.601529,770.934166 C716.540208,772.933814 715.449287,774.925007 714.341453,776.920428 L765.707737,805.520048 C766.993163,803.216014 768.257446,800.895069 769.504817,798.552986 L717.601529,770.934166 M726.451516,752.899283 C725.550872,754.915841 724.624858,756.923945 723.665017,758.927821 L776.739564,784.229924 C777.898138,781.794834 779.035571,779.338607 780.143405,776.857014 L726.451516,752.899283 M733.682035,734.686841 C732.975896,736.728766 732.235931,738.762234 731.466367,740.787248 L786.414083,761.701117 C787.395066,759.130745 788.337993,756.530779 789.247093,753.905448 L733.682035,734.686841 M739.043612,716.309524 C738.557349,718.372586 738.033031,720.422966 737.474886,722.460662 L794.181606,737.984359 C794.917343,735.304069 795.610796,732.594186 796.257737,729.85471 L739.043612,716.309524 M742.400941,697.725055 C742.138782,699.813483 741.842796,701.889228 741.508754,703.943834 L799.55164,713.333303 C799.999848,710.57269 800.397315,707.782483 800.74827,704.96691 L742.400941,697.725055 M743.682138,678.929207 C743.65254,681.047228 743.589114,683.14411 743.483405,685.219855 L802.207059,688.13689 C802.346595,685.346683 802.435391,682.535338 802.473446,679.698628 L743.682138,678.929207 M802.494588,657.093724 L743.694824,657.093724 L743.694824,664.500455 L802.494588,664.500455 L802.494588,657.093724 M802.494588,634.856621 L743.694824,634.856621 L743.694824,642.250669 L802.494588,642.250669 L802.494588,634.856621 M802.494588,612.657566 L743.694824,612.657566 L743.694824,620.047386 L802.494588,620.047386 L802.494588,612.657566 M802.494588,590.475421 L743.694824,590.475421 L743.694824,597.861014 L802.494588,597.861014 L802.494588,590.475421 M802.494588,568.301731 L743.694824,568.301731 L743.694824,575.687324 L802.494588,575.687324 L802.494588,568.301731 M802.494588,546.136497 L743.694824,546.136497 L743.694824,553.52209 L802.494588,553.52209 L802.494588,546.136497 M802.494588,523.97549 L743.694824,523.97549 L743.694824,531.361083 L802.494588,531.361083 L802.494588,523.97549 M802.494588,501.81871 L743.694824,501.81871 L743.694824,509.200076 L802.494588,509.200076 L802.494588,501.81871 M802.494588,479.661931 L743.694824,479.661931 L743.694824,487.043297 L802.494588,487.043297 L802.494588,479.661931 M802.494588,457.505152 L743.694824,457.505152 L743.694824,464.886517 L802.494588,464.886517 L802.494588,457.505152 M802.494588,435.356828 L743.694824,435.356828 L743.694824,442.733966 L802.494588,442.733966 L802.494588,435.356828 M802.494588,413.204276 L754.308042,413.204276 L755.060692,413.893372 C753.339744,415.783103 751.610339,417.664379 749.868249,419.5372 L743.694824,413.796138 L743.694824,420.585641 L802.494588,420.585641 L802.494588,413.204276 M752.18117,391.051724 L743.694824,391.051724 L743.694824,398.43309 L760.667516,398.43309 L752.18117,391.051724 M802.494588,391.051724 L763.720401,391.051724 L770.261696,396.619455 C769.750062,397.228228 769.229972,397.832772 768.714111,398.43309 L802.494588,398.43309 L802.494588,391.051724 M760.494152,368.9034 L743.694824,368.9034 L743.694824,374.014552 L746.362927,376.284766 L769.568242,376.284766 L760.494152,368.9034 M802.494588,368.9034 L772.363197,368.9034 L781.644478,376.284766 L802.494588,376.284766 L802.494588,368.9034 M767.978374,346.755076 L744.515128,346.755076 L753.796408,354.136441 L777.690948,354.136441 L767.978374,346.755076 M802.494588,346.755076 L780.223744,346.755076 L790.160422,354.136441 L802.494588,354.136441 L802.494588,346.755076 M774.600007,324.610979 L743.694824,324.610979 L743.694824,331.988117 L748.54054,331.988117 L747.483446,331.184876 C748.899952,329.32051 750.303772,327.451917 751.699135,325.574869 L760.333474,331.988117 L785.014491,331.988117 L774.600007,324.610979 M802.494588,324.610979 L787.272443,324.610979 L797.932173,331.988117 L802.494588,331.988117 L802.494588,324.610979 M780.320997,302.462655 L743.694824,302.462655 L743.694824,309.839793 L763.018491,309.839793 C763.335619,309.387441 763.652747,308.930862 763.965647,308.474283 L765.940298,309.839793 L791.500817,309.839793 L780.320997,302.462655 M802.494588,302.462655 L793.475467,302.462655 L802.494588,308.271359 L802.494588,302.462655 M785.086374,280.314331 L743.694824,280.314331 L743.694824,287.695697 L797.120325,287.695697 L785.086374,280.314331 M802.494588,280.314331 L798.790533,280.314331 L802.494588,282.529586 L802.494588,280.314331 M795.420519,258.170234 L743.694824,258.170234 L743.694824,265.547372 L801.81382,265.547372 L793.817965,261.002717 C794.354969,260.059966 794.887744,259.117214 795.420519,258.170234 M802.494588,236.02191 L743.694824,236.02191 L743.694824,243.403276 L802.494588,243.403276 L802.494588,236.02191 M802.494588,213.877814 L743.694824,213.877814 L743.694824,221.254952 L802.494588,221.254952 L802.494588,213.877814 M802.494588,191.733717 L743.694824,191.733717 L743.694824,196.016262 L744.828028,196.578531 C744.451702,197.335269 744.075377,198.096234 743.694824,198.852972 L743.694824,199.110855 L802.494588,199.110855 L802.494588,191.733717 M802.494588,169.585393 L743.694824,169.585393 L743.694824,170.574648 L754.730879,175.470193 C754.506775,175.969048 754.2869,176.467903 754.062796,176.966759 L802.494588,176.966759 L802.494588,169.585393 M743.694824,154.142021 L743.694824,154.822662 L745.356574,154.822662 L743.694824,154.142021 M802.494588,147.441297 L747.204374,147.441297 L763.741543,153.960234 C763.627377,154.24771 763.513211,154.535186 763.399045,154.822662 L802.494588,154.822662 L802.494588,147.441297 M743.694824,130.163152 L743.694824,132.678566 L750.629356,132.678566 L743.694824,130.163152 M802.494588,125.2972 L752.248824,125.2972 L771.843107,132.082476 C771.771225,132.281172 771.703571,132.479869 771.635917,132.678566 L802.494588,132.678566 L802.494588,125.2972 M743.694824,106.902972 L743.694824,110.530241 L755.208685,110.530241 L743.694824,106.902972 M802.494588,103.153103 L756.595592,103.153103 L779.018657,109.874966 C778.951003,110.0948 778.887578,110.314634 778.819924,110.530241 L802.494588,110.530241 L802.494588,103.153103 M743.694824,84.2431103 L743.694824,88.3861448 L759.073419,88.3861448 L743.694824,84.2431103 M802.494588,81.0047793 L760.223536,81.0047793 L785.255509,87.3757517 C785.166713,87.7139586 785.082145,88.0521655 784.997578,88.3861448 L802.494588,88.3861448 L802.494588,81.0047793 M743.694824,62.0821034 L743.694824,66.2420483 L762.193958,66.2420483 L743.694824,62.0821034 M802.494588,58.8606828 L762.942381,58.8606828 L790.532519,64.660931 C790.422581,65.1893793 790.308415,65.7136 790.198478,66.2420483 L802.494588,66.2420483 L802.494588,58.8606828 M743.694824,40.407269 L743.694824,44.0937241 L764.050215,44.0937241 L743.694824,40.407269 M802.494588,36.6827655 L764.223578,36.6827655 L794.84546,41.7939172 C794.714381,42.5633379 794.587529,43.328531 794.45645,44.0937241 L802.494588,44.0937241 L802.494588,36.6827655 M743.694824,19.053731 L743.694824,21.8777586 L764.096727,21.8777586 L743.694824,19.053731 M802.494588,14.4837103 L763.728858,14.4837103 L798.194332,18.7704828 C798.067481,19.8062414 797.936401,20.8462276 797.801093,21.8777586 L802.494588,21.8777586 L802.494588,14.4837103" id="Fill-1" fill-opacity="0.590000033" fill="#A8DEFE"></path>
                    <path d="M802.494588,1198.13175 L743.694824,1198.13175 L743.694824,1205.48775 L802.494588,1205.48775 L802.494588,1198.13175 L802.494588,1198.13175 Z M802.494588,1176.05952 L743.694824,1176.05952 L743.694824,1183.4113 L802.494588,1183.4113 L802.494588,1176.05952 L802.494588,1176.05952 Z M802.494588,1153.97884 L743.694824,1153.97884 L743.694824,1161.33484 L802.494588,1161.33484 L802.494588,1153.97884 L802.494588,1153.97884 Z M802.494588,1131.89816 L743.694824,1131.89816 L743.694824,1139.25416 L802.494588,1139.25416 L802.494588,1131.89816 L802.494588,1131.89816 Z M802.494588,1109.81748 L743.694824,1109.81748 L743.694824,1117.17348 L802.494588,1117.17348 L802.494588,1109.81748 L802.494588,1109.81748 Z M802.494588,1087.72411 L743.694824,1087.72411 L743.694824,1095.08434 L802.494588,1095.08434 L802.494588,1087.72411 L802.494588,1087.72411 Z M802.494588,1065.62229 L743.694824,1065.62229 L743.694824,1072.98674 L802.494588,1072.98674 L802.494588,1065.62229 L802.494588,1065.62229 Z M802.494588,1043.50779 L743.694824,1043.50779 L743.694824,1050.87647 L802.494588,1050.87647 L802.494588,1043.50779 L802.494588,1043.50779 Z M802.494588,1021.35946 L743.694824,1021.35946 L743.694824,1028.7366 L802.494588,1028.7366 L802.494588,1021.35946 L802.494588,1021.35946 Z M802.287398,997.900586 L743.54683,1000.47096 C743.635626,1002.51288 743.686367,1004.57172 743.694824,1006.65592 L802.49036,1006.40649 C802.477675,1003.54864 802.410021,1000.71616 802.287398,997.900586 L802.287398,997.900586 Z M799.661578,972.556207 L741.639834,982.068276 C741.969647,984.09329 742.265633,986.130986 742.519336,988.185593 L800.870893,980.964876 C800.519938,978.136621 800.114014,975.329503 799.661578,972.556207 L799.661578,972.556207 Z M794.135093,947.841738 L737.563682,963.843152 C738.130284,965.855483 738.663059,967.872041 739.157779,969.901283 L796.278879,955.979841 C795.610796,953.240366 794.896201,950.526255 794.135093,947.841738 L794.135093,947.841738 Z M786.139239,924.243352 L731.436768,945.799814 C732.223246,947.791007 732.971668,949.786428 733.690491,951.786076 L789.039903,931.954469 C788.109661,929.358731 787.141363,926.788359 786.139239,924.243352 L786.139239,924.243352 Z M776.232159,901.925924 L723.470512,927.870621 C724.447266,929.857586 725.398651,931.844552 726.311979,933.835745 L779.707882,909.222738 C778.578907,906.76651 777.416104,904.335648 776.232159,901.925924 L776.232159,901.925924 Z M765.010055,880.86409 L713.943986,910.000614 C715.081419,911.987579 716.189253,913.970317 717.275945,915.957283 L768.866332,887.755055 C767.59782,885.438338 766.312394,883.142759 765.010055,880.86409 L765.010055,880.86409 Z M698.30746,869.686352 L691.588574,874.104179 C692.916284,876.124966 694.231308,878.133069 695.537875,880.136945 L704.971377,874.002717 L698.30746,869.686352 L698.30746,869.686352 Z M753.018388,860.8972 L704.91218,891.048345 L709.559163,893.935786 C708.717716,895.292841 707.884727,896.645669 707.060194,897.994269 L757.077626,867.449959 C755.733003,865.251614 754.379924,863.065952 753.018388,860.8972 L753.018388,860.8972 Z M681.427792,858.758041 C682.129702,859.819166 682.835841,860.88029 683.537751,861.941414 L684.920429,861.0198 L681.427792,858.758041 L681.427792,858.758041 Z M718.366865,856.496283 L705.000976,865.285434 L711.660664,869.652531 L725.064609,860.939476 L718.366865,856.496283 L718.366865,856.496283 Z M698.392028,843.2428 L684.954256,852.141869 L691.668913,856.542786 L705.051716,847.664855 L698.392028,843.2428 L698.392028,843.2428 Z M738.65883,843.149793 L725.081522,852.078455 L731.82155,856.547014 L744.828028,848.091841 C743.944298,846.730559 743.060567,845.377731 742.176837,844.029131 C741.96119,844.36311 741.745543,844.692862 741.529896,845.022614 L738.65883,843.149793 L738.65883,843.149793 Z M718.455661,829.959724 L705.077087,838.816517 L711.732547,843.230117 L725.149176,834.331048 L718.455661,829.959724 L718.455661,829.959724 Z M683.216394,826.653752 L667.144346,836.947924 C668.505882,839.078628 669.875875,841.196648 671.245869,843.297759 L684.992311,834.356414 L680.210021,831.181497 C681.216374,829.668021 682.218498,828.158772 683.216394,826.653752 L683.216394,826.653752 Z M728.476907,823.326641 L725.187232,825.503848 L731.918803,829.832897 L732.527689,829.431276 C731.170381,827.389352 729.817301,825.355883 728.476907,823.326641 L728.476907,823.326641 Z M698.446997,816.90071 L685.000768,825.512303 L691.732339,829.972407 L705.123599,821.259352 L698.446997,816.90071 L698.446997,816.90071 Z M716.650145,805.241028 L705.148969,812.605483 L711.821343,816.90071 L720.527564,811.239972 C719.225225,809.236097 717.931343,807.236448 716.650145,805.241028 L716.650145,805.241028 Z M705.563349,787.341428 L655.01737,817.369972 C656.340851,819.59791 657.672789,821.80471 659.013183,823.9946 L705.187024,795.724731 L703.783204,794.858076 C704.848754,793.124766 705.905848,791.391455 706.950256,789.658145 C706.485135,788.884497 706.020014,788.110848 705.563349,787.341428 L705.563349,787.341428 Z M695.516734,769.462966 L643.478138,796.823903 C644.708595,799.165986 645.964422,801.486931 647.232934,803.790966 L698.730298,775.42809 C697.635149,773.441124 696.56537,771.454159 695.516734,769.462966 L695.516734,769.462966 Z M686.823197,751.487269 L632.983315,775.111021 C634.074235,777.596841 635.190526,780.053069 636.336415,782.488159 L689.554727,757.498897 C688.616028,755.499248 687.702699,753.495372 686.823197,751.487269 L686.823197,751.487269 Z M679.749128,733.325559 L624.048761,752.151 C624.940948,754.776331 625.862734,757.376297 626.822574,759.950897 L681.914055,739.409055 C681.161405,737.388269 680.438353,735.363255 679.749128,733.325559 L679.749128,733.325559 Z M674.548228,715.0032 L617.236851,728.1214 C617.862651,730.856648 618.530734,733.562303 619.245329,736.242593 L676.066215,721.137428 C675.524983,719.103959 675.021806,717.062034 674.548228,715.0032 L674.548228,715.0032 Z M671.347349,696.47369 L612.94928,703.288559 C613.274865,706.095676 613.655419,708.877428 614.078256,711.633814 L672.188796,702.675559 C671.871668,700.625179 671.592595,698.562117 671.347349,696.47369 L671.347349,696.47369 Z M670.205689,677.741255 L611.410152,678.109055 C611.427066,680.933083 611.49472,683.735972 611.613114,686.513497 L670.35791,684.010766 C670.269114,681.943476 670.218374,679.855048 670.205689,677.741255 L670.205689,677.741255 Z M670.20146,655.791628 L611.405924,655.791628 L611.405924,663.168766 L670.20146,663.168766 L670.20146,655.791628 L670.20146,655.791628 Z M611.405924,633.660214 L611.405924,641.028897 L670.20146,641.028897 L670.20146,633.660214 L611.405924,633.660214 L611.405924,633.660214 Z M611.405924,611.549938 L611.405924,618.914393 L670.20146,618.914393 L670.20146,611.554166 L611.405924,611.549938 L611.405924,611.549938 Z M670.20146,589.456572 L611.405924,589.456572 L611.405924,596.812572 L670.20146,596.812572 L670.20146,589.456572 L670.20146,589.456572 Z M670.20146,567.367434 L611.405924,567.367434 L611.405924,574.723434 L670.20146,574.723434 L670.20146,567.367434 L670.20146,567.367434 Z M611.405924,545.278297 L611.405924,552.638524 L670.20146,552.638524 L670.20146,545.282524 L611.405924,545.282524 L611.405924,545.278297 Z M670.20146,523.197614 L628.332104,523.197614 C628.027661,523.400538 627.727446,523.603462 627.423003,523.806386 L627.01708,523.197614 L611.405924,523.197614 L611.405924,527.251869 L613.507426,530.553614 L670.20146,530.553614 L670.20146,523.197614 L670.20146,523.197614 Z M612.251599,501.116931 L611.405924,501.116931 L611.405924,508.472931 L617.173426,508.472931 L612.251599,501.116931 L612.251599,501.116931 Z M639.49501,501.116931 L621.194609,501.116931 L626.23483,508.472931 L644.776249,508.472931 L639.49501,501.116931 L639.49501,501.116931 Z M670.20146,501.116931 L648.865087,501.116931 L652.577599,506.173124 C651.528962,506.942545 650.480325,507.707738 649.42746,508.472931 L670.20146,508.472931 L670.20146,501.116931 L670.20146,501.116931 Z M651.072298,479.040476 L632.640817,479.040476 L638.044678,486.396476 L656.73409,486.396476 L651.072298,479.040476 L651.072298,479.040476 Z M670.20146,479.040476 L660.526941,479.040476 L666.315585,486.396476 L670.20146,486.396476 L670.20146,479.040476 L670.20146,479.040476 Z M611.405924,479.040476 L611.405924,486.396476 L628.924076,486.396476 L623.642837,479.040476 L611.405924,479.040476 L611.405924,479.040476 Z M661.748941,456.964021 L643.144097,456.964021 L648.936969,464.315793 L667.808201,464.315793 L661.748941,456.964021 L661.748941,456.964021 Z M611.405924,456.959793 L611.405924,464.315793 L613.076131,464.315793 L612.078235,462.929145 C613.981003,461.563634 615.875315,460.185441 617.765398,458.798793 L621.820408,464.315793 L639.744484,464.315793 L634.082692,456.964021 L611.405924,456.959793 L611.405924,456.959793 Z M648.315398,434.883338 L611.405924,434.883338 L611.405924,442.239338 L649.621965,442.239338 L645.490844,437.225421 C646.433772,436.447545 647.376699,435.669669 648.315398,434.883338 L648.315398,434.883338 Z M670.20146,434.883338 L652.70445,434.883338 L658.903246,442.239338 L670.20146,442.239338 L670.20146,434.883338 L670.20146,434.883338 Z M670.20146,412.806883 L611.405924,412.806883 L611.405924,420.162883 L665.359972,420.162883 C665.83355,419.740124 666.307128,419.313138 666.780706,418.890379 L667.930824,420.162883 L670.20146,420.162883 L670.20146,412.806883 L670.20146,412.806883 Z M670.20146,390.721972 L611.405924,390.721972 L611.405924,398.073745 L670.20146,398.073745 L670.20146,390.721972 L670.20146,390.721972 Z M670.20146,368.692021 L611.405924,368.692021 L611.405924,376.048021 L670.20146,376.048021 L670.20146,368.692021 L670.20146,368.692021 Z M670.20146,346.615566 L635.993917,346.615566 L636.163052,346.788897 C634.323709,348.602531 632.471682,350.403483 630.606969,352.191752 L625.253848,346.615566 L611.405924,346.615566 L611.405924,353.971566 L670.20146,353.971566 L670.20146,346.615566 L670.20146,346.615566 Z M635.363889,324.53911 L614.213564,324.53911 L621.469453,331.89511 L643.034159,331.89511 L635.363889,324.53911 L635.363889,324.53911 Z M670.20146,324.53911 L646.404173,324.53911 L652.383093,330.115297 C651.829176,330.711386 651.27526,331.303248 650.717114,331.89511 L670.20146,331.89511 L670.20146,324.53911 L670.20146,324.53911 Z M612.344623,302.458428 L611.405924,302.458428 L611.405924,309.814428 L620.014893,309.814428 L612.344623,302.458428 L612.344623,302.458428 Z M644.480263,302.458428 L622.737965,302.458428 L630.623882,309.814428 L652.814388,309.814428 L644.480263,302.458428 L644.480263,302.458428 Z M670.20146,302.458428 L655.871502,302.458428 L664.442415,309.814428 L670.20146,309.814428 L670.20146,302.458428 L670.20146,302.458428 Z M619.460976,280.373517 L611.405924,280.373517 L611.405924,287.733745 L627.7951,287.733745 L619.460976,280.373517 L619.460976,280.373517 Z M652.577599,280.373517 L630.146076,280.373517 L638.71699,287.733745 L661.643232,287.733745 L652.577599,280.373517 L652.577599,280.373517 Z M670.20146,280.373517 L664.37899,280.373517 L670.20146,284.968903 L670.20146,280.373517 L670.20146,280.373517 Z M659.617841,258.288607 L611.405924,258.288607 L611.405924,265.648834 L634.429419,265.648834 L632.192609,263.830972 C633.651398,262.034248 635.097502,260.229069 636.53092,258.411207 L645.706491,265.648834 L669.49955,265.648834 L659.617841,258.288607 L659.617841,258.288607 Z M665.546021,236.199469 L611.405924,236.199469 L611.405924,243.559697 L647.807993,243.559697 C648.239287,242.967834 648.666353,242.3802 649.093419,241.788338 L651.537419,243.559697 L670.20146,243.559697 L670.20146,239.374386 L665.546021,236.199469 L665.546021,236.199469 Z M670.20146,214.097648 L611.405924,214.097648 L611.405924,221.462103 L670.20146,221.462103 L670.20146,214.097648 L670.20146,214.097648 Z M670.20146,191.987372 L611.405924,191.987372 L611.405924,199.351828 L670.20146,199.351828 L670.20146,191.987372 L670.20146,191.987372 Z M670.20146,169.847503 L611.405924,169.847503 L611.405924,177.224641 L670.20146,177.224641 L670.20146,169.847503 L670.20146,169.847503 Z M670.20146,147.585034 L611.405924,147.585034 L611.405924,147.589262 L611.405924,155.050952 L670.20146,155.050952 L670.20146,147.589262 L670.20146,147.585034 L670.20146,147.585034 Z M611.405924,132.889945 L670.20146,132.889945 L670.20146,125.5424 L611.405924,125.5424 L611.405924,132.889945 Z M611.405924,110.843083 L670.20146,110.843083 L670.20146,103.495538 L611.405924,103.495538 L611.405924,110.843083 Z M611.405924,88.8004483 L670.20146,88.8004483 L670.20146,81.4529034 L611.405924,81.4529034 L611.405924,88.8004483 Z M611.405924,66.7535862 L670.20146,66.7535862 L670.20146,59.4060414 L611.405924,59.4060414 L611.405924,66.7535862 Z M611.405924,44.7109517 L670.20146,44.7109517 L670.20146,37.3634069 L611.405924,37.3634069 L611.405924,44.7109517 Z M611.405924,22.6683172 L670.20146,22.6683172 L670.20146,15.3207724 L611.405924,15.3207724 L611.405924,22.6683172 Z M611.405924,0.621455172 L670.20146,0.621455172 L670.20146,0 L611.405924,0 L611.405924,0.621455172 Z" id="Fill-2" fill-opacity="0.590000033" fill="#A8DEFE"></path>
                    <path d="M704.91218,891.048345 L703.199689,892.117924 C704.451287,894.113345 705.685972,896.104538 706.899516,898.091503 L707.060194,897.994269 C707.884727,896.645669 708.717716,895.292841 709.559163,893.935786 L704.91218,891.048345 M705.000976,865.285434 L698.30746,869.686352 L704.971377,874.002717 L711.660664,869.652531 L705.000976,865.285434 M684.954256,852.141869 L679.453142,855.781821 C680.112768,856.779531 680.768166,857.768786 681.427792,858.758041 L684.920429,861.0198 L691.668913,856.542786 L684.954256,852.141869 M725.081522,852.078455 L718.366865,856.496283 L725.064609,860.939476 L731.82155,856.547014 L725.081522,852.078455 M740.71382,841.801193 L738.65883,843.149793 L741.529896,845.022614 C741.745543,844.692862 741.96119,844.36311 742.176837,844.029131 C741.686346,843.285076 741.200083,842.545248 740.71382,841.801193 M705.077087,838.816517 L698.392028,843.2428 L705.051716,847.664855 L711.732547,843.230117 L705.077087,838.816517 M685.000768,825.512303 L683.216394,826.653752 C682.218498,828.158772 681.216374,829.668021 680.210021,831.181497 L684.992311,834.356414 L691.732339,829.972407 L685.000768,825.512303 M725.187232,825.503848 L718.455661,829.959724 L725.149176,834.331048 L731.918803,829.832897 L725.187232,825.503848 M705.148969,812.605483 L698.446997,816.90071 L705.123599,821.259352 L711.821343,816.90071 L705.148969,812.605483 M706.950256,789.658145 C705.905848,791.391455 704.848754,793.124766 703.783204,794.858076 L705.187024,795.724731 L709.157467,793.293869 C708.413273,792.084779 707.677536,790.871462 706.950256,789.658145" id="Fill-3" fill-opacity="0.590000033" fill="#A8DEFE"></path>
                    <path d="M0,789.133924 L0,799.098345 L3.53492042,797.627145 L0,789.133924 M1.28965398,734.885538 L0,735.422441 L0,750.899634 L17.1037716,791.97909 L23.8903114,789.155062 L1.28965398,734.885538 M21.645045,726.413455 L14.8585052,729.237483 L37.4591626,783.502779 L44.2457024,780.678752 L21.645045,726.413455 M42.000436,717.937145 L35.2138962,720.761172 L57.8145536,775.030697 L64.6010934,772.206669 L42.000436,717.937145 M62.355827,709.465062 L55.5692872,712.28909 L78.1699446,766.558614 L84.9564844,763.734586 L62.355827,709.465062 M82.7069896,700.988752 L75.9246782,703.817007 L98.5253356,758.086531 L105.307647,755.258276 L82.7069896,700.988752 M103.062381,692.516669 L96.2800692,695.340697 L118.880727,749.610221 L125.663038,746.786193 L103.062381,692.516669 M123.417772,684.044586 L116.63546,686.868614 L139.231889,741.138138 L146.018429,738.31411 L123.417772,684.044586 M143.773163,675.568276 L136.986623,678.396531 L159.58728,732.661828 L166.37382,729.8378 L143.773163,675.568276 M164.128554,667.096193 L157.342014,669.920221 L179.942671,724.189745 L186.729211,721.365717 L164.128554,667.096193 M184.483945,658.62411 L177.697405,661.448138 L200.298062,715.717662 L207.080374,712.893634 L184.483945,658.62411 M204.835107,650.152028 L198.052796,652.976055 L220.653453,707.241352 L227.435765,704.417324 L204.835107,650.152028 M225.190498,641.675717 L218.408187,644.499745 L241.004616,698.769269 L247.791156,695.945241 L225.190498,641.675717 M245.545889,633.203634 L238.759349,636.027662 L261.360007,690.297186 L268.146547,687.473159 L245.545889,633.203634 M265.90128,624.731552 L259.11474,627.555579 L281.715398,681.825103 L288.501938,678.996848 L265.90128,624.731552 M286.256671,616.255241 L279.470131,619.079269 L302.070789,673.348793 L308.8531,670.524766 L286.256671,616.255241 M306.607834,607.783159 L299.825522,610.607186 L322.42618,664.87671 L329.208491,662.052683 L306.607834,607.783159 M326.963225,599.311076 L320.180913,602.135103 L342.781571,656.404628 L349.563882,653.5806 L326.963225,599.311076 M347.318616,590.834766 L340.532076,593.658793 L363.132734,647.928317 L369.919273,645.10429 L347.318616,590.834766 M367.674007,582.362683 L360.887467,585.18671 L383.488125,639.456234 L390.274664,636.632207 L367.674007,582.362683 M388.029398,573.8906 L381.242858,576.714628 L403.843516,630.984152 L410.625827,628.155897 L388.029398,573.8906 M408.384789,565.41429 L401.598249,568.238317 L424.198907,622.507841 L430.981218,619.683814 L408.384789,565.41429 M428.735952,556.942207 L421.95364,559.766234 L444.554298,614.035759 L451.336609,611.211731 L428.735952,556.942207 M449.091343,548.470124 L442.304803,551.294152 L464.90546,605.563676 L471.692,602.739648 L449.091343,548.470124 M469.446734,539.993814 L462.660194,542.822069 L485.260851,597.087366 L492.047391,594.263338 L469.446734,539.993814 M489.687958,531.589372 C487.52726,532.502531 485.362332,533.403007 483.193176,534.2908 L505.464021,588.695607 C507.836138,587.723262 510.208256,586.738234 512.567689,585.740524 L489.687958,531.589372 M508.986256,523.053876 C506.859384,524.038903 504.728284,525.007021 502.584498,525.97091 L526.673543,579.597841 C529.011834,578.545172 531.345896,577.479821 533.67573,576.406014 L508.986256,523.053876 M527.984339,513.875786 C525.891294,514.932683 523.794021,515.972669 521.684062,517.008428 L547.557481,569.794069 C549.861945,568.665303 552.157952,567.523855 554.445502,566.369724 L527.984339,513.875786 M626.23483,508.472931 L617.173426,508.472931 L627.01708,523.197614 L628.332104,523.197614 C630.154533,521.975841 631.972734,520.741386 633.786706,519.502703 L626.23483,508.472931 M649.42746,508.472931 L644.776249,508.472931 L646.361889,510.683959 C647.385156,509.952586 648.408422,509.212759 649.42746,508.472931 M546.661066,504.072014 C544.606076,505.192324 542.54263,506.308407 540.470727,507.407579 L568.09892,559.3012 C570.3611,558.096338 572.619052,556.878793 574.868547,555.648566 L546.661066,504.072014 M564.999522,493.646786 C562.982588,494.838966 560.957197,496.018462 558.923349,497.189503 L588.268263,548.12769 C590.492388,546.850959 592.703827,545.557317 594.911038,544.255221 L564.999522,493.646786 M638.044678,486.396476 L628.924076,486.396476 L639.49501,501.116931 L648.865087,501.116931 L638.044678,486.396476 M666.315585,486.396476 L656.73409,486.396476 L664.852567,496.944303 C666.882187,495.384324 668.899121,493.811662 670.911827,492.230545 L666.315585,486.396476 M582.974339,482.617014 C580.99546,483.876834 579.012353,485.123972 577.020789,486.362655 L608.052824,536.290448 C610.230436,534.941848 612.395363,533.576338 614.556062,532.202372 L613.507426,530.553614 L611.405924,530.553614 L611.405924,527.251869 L582.974339,482.617014 M600.568602,470.995379 C598.636235,472.322841 596.695412,473.633393 594.746131,474.93549 L612.251599,501.116931 L621.194609,501.116931 L600.568602,470.995379 M621.820408,464.315793 L613.076131,464.315793 L623.642837,479.040476 L632.640817,479.040476 L621.820408,464.315793 M648.936969,464.315793 L639.744484,464.315793 L651.072298,479.040476 L660.526941,479.040476 L648.936969,464.315793 M634.543585,446.039938 C632.704242,447.485772 630.856443,448.927379 629.000187,450.356303 L634.082692,456.964021 L643.144097,456.964021 L634.543585,446.039938 M658.903246,442.239338 L649.621965,442.239338 L661.748941,456.964021 L670.20146,456.964021 L670.20146,464.315793 L667.808201,464.315793 L682.869668,482.604331 C684.844318,480.97671 686.810512,479.336407 688.768249,477.691876 L658.903246,442.239338 M650.890478,432.731497 C650.032118,433.450186 649.177986,434.168876 648.315398,434.883338 L652.70445,434.883338 L650.890478,432.731497 M667.930824,420.162883 L665.359972,420.162883 C664.09146,421.300103 662.814491,422.433097 661.537522,423.561862 L700.400505,467.672497 C702.320187,465.981462 704.231412,464.281972 706.129952,462.5698 L667.930824,420.162883 M682.205813,404.533497 C680.518692,406.152662 678.823114,407.7676 677.114851,409.374083 L717.419709,452.174166 C719.284422,450.419717 721.13645,448.656814 722.980021,446.885455 L682.205813,404.533497 M768.714111,398.43309 L760.667516,398.43309 L765.259529,402.432386 C766.418104,401.104924 767.568221,399.773234 768.714111,398.43309 M697.140429,389.673531 C695.508277,391.351883 693.867668,393.021779 692.218602,394.678993 L733.914595,436.122021 C735.720111,434.308386 737.512941,432.486297 739.293087,430.651524 L697.140429,389.673531 M781.644478,376.284766 L769.568242,376.284766 L780.075751,384.832945 C781.686761,382.850207 783.289315,380.859014 784.883412,378.859366 L781.644478,376.284766 M711.571869,374.331621 C709.998913,376.060703 708.413273,377.781331 706.819176,379.497731 L743.694824,413.796138 L743.694824,413.204276 L754.308042,413.204276 L711.571869,374.331621 M725.487446,358.520448 C723.96946,360.30449 722.443017,362.075848 720.908118,363.842979 L752.18117,391.051724 L763.720401,391.051724 L746.362927,376.284766 L743.694824,376.284766 L743.694824,374.014552 L725.487446,358.520448 M790.160422,354.136441 L777.690948,354.136441 L794.295772,366.755786 C795.843356,364.71809 797.378256,362.676166 798.900471,360.625786 L790.160422,354.136441 M738.866021,342.265379 C737.41146,344.095924 735.944215,345.918014 734.468512,347.731648 L760.494152,368.9034 L772.363197,368.9034 L753.796408,354.136441 L743.694824,354.136441 L743.694824,346.755076 L744.515128,346.755076 L738.866021,342.265379 M760.333474,331.988117 L748.54054,331.988117 L767.978374,346.755076 L780.223744,346.755076 L760.333474,331.988117 M797.932173,331.988117 L785.014491,331.988117 L807.906907,348.217821 C809.386837,346.133621 810.849855,344.040966 812.304415,341.939855 L797.932173,331.988117 M765.940298,309.839793 L763.018491,309.839793 C761.999453,311.306766 760.971958,312.765283 759.940235,314.219572 L774.600007,324.610979 L787.272443,324.610979 L765.940298,309.839793 M802.494588,308.271359 L802.494588,309.839793 L791.500817,309.839793 L820.892242,329.240186 C822.300291,327.109483 823.695654,324.970324 825.082561,322.82271 L802.494588,308.271359 M775.6571,290.980531 C774.388588,292.946359 773.111619,294.903731 771.826194,296.856876 L780.320997,302.462655 L793.475467,302.462655 L775.6571,290.980531 M802.494588,282.529586 L802.494588,287.695697 L797.120325,287.695697 L833.243322,309.844021 C834.57526,307.666814 835.89874,305.485379 837.209536,303.291262 L802.494588,282.529586 M786.752353,273.114752 C785.555723,275.118628 784.34218,277.118276 783.12018,279.109469 L785.086374,280.314331 L798.790533,280.314331 L786.752353,273.114752 M797.247176,254.893855 C796.642519,255.9888 796.033633,257.079517 795.420519,258.170234 L802.494588,258.170234 L802.494588,265.547372 L801.81382,265.547372 L844.934775,290.05469 C846.19483,287.835207 847.446429,285.607269 848.681114,283.375103 L797.247176,254.893855 M807.124657,236.338979 C806.063336,238.418952 804.989329,240.490469 803.902637,242.557759 L855.958145,269.889103 C857.146318,267.627345 858.317578,265.361359 859.480381,263.086917 L807.124657,236.338979 M816.376339,217.471262 C815.382671,219.580828 814.380547,221.690393 813.365737,223.791503 L866.300747,249.3684 C867.41281,247.072821 868.512187,244.768786 869.594651,242.456297 L816.376339,217.471262 M824.985308,198.307614 C824.067751,200.455228 823.13328,202.594386 822.190353,204.72509 L875.954125,228.522172 C876.499585,227.287717 877.040817,226.053262 877.57782,224.818807 L875.987952,224.818807 L875.987952,220.20651 L824.985308,198.307614 M895.002948,180.72931 L878.867474,180.72931 L893.129779,185.929241 C893.759806,184.200159 894.385606,182.466848 895.002948,180.72931 M832.951564,178.877628 C832.101661,181.050607 831.239073,183.219359 830.368028,185.379655 L884.901363,207.367331 C885.514478,205.836945 886.127592,204.306559 886.732249,202.771945 L875.987952,202.771945 L875.987952,195.673828 L832.951564,178.877628 M840.253965,159.198214 C839.480173,161.400786 838.693696,163.594903 837.894533,165.784793 L875.987952,179.676641 L875.987952,173.381766 L880.524997,173.381766 L840.253965,159.198214 M902.427972,158.682448 L883.666678,158.682448 L900.635142,164.237497 C901.239799,162.390041 901.840228,160.538359 902.427972,158.682448 M846.89674,139.294738 C846.19483,141.518448 845.484464,143.733703 844.757183,145.948959 L875.987952,156.171262 L875.987952,151.334903 L885.129696,151.334903 L846.89674,139.294738 M909.032692,136.639814 L887.890824,136.639814 L907.408997,142.313234 C907.958685,140.423503 908.499917,138.533772 909.032692,136.639814 M852.871433,119.154517 C852.245633,121.407821 851.60292,123.656897 850.951751,125.905972 L875.987952,133.181648 L875.987952,129.292269 L889.273502,129.292269 L852.871433,119.154517 M914.842478,114.592952 L891.861266,114.592952 L913.468256,120.093041 C913.933377,118.262497 914.390042,116.431952 914.842478,114.592952 M858.18227,98.7817793 C857.628353,101.056221 857.065979,103.326434 856.486692,105.592421 L875.987952,110.555607 L875.987952,107.245407 L893.070581,107.245407 L858.18227,98.7817793 M919.878471,92.5503172 L895.328533,92.5503172 L918.774865,97.6868345 C919.146962,95.9788897 919.51483,94.2667172 919.878471,92.5503172 M862.803882,78.2399379 C862.330304,80.5312897 861.839813,82.8226414 861.340865,85.1055379 L875.987952,88.3142759 L875.987952,85.2027724 L896.372941,85.2027724 L862.803882,78.2399379 M924.157585,70.5076828 L898.296851,70.5076828 L923.324595,75.1157517 C923.607896,73.5811379 923.886969,72.0465241 924.157585,70.5076828 M866.73627,57.5543586 C866.338803,59.8626207 865.924422,62.1666552 865.501585,64.4664621 L875.987952,66.3942414 L875.987952,63.1601379 L899.180581,63.1601379 L866.73627,57.5543586 M927.696734,48.4608207 L900.778907,48.4608207 L927.117446,52.4093862 C927.31618,51.0946069 927.510685,49.7798276 927.696734,48.4608207 M869.975204,36.7461793 C869.653848,39.0671241 869.319806,41.3838414 868.97308,43.696331 L875.987952,44.7447724 L875.987952,41.1132759 L901.501958,41.1132759 L869.975204,36.7461793 M930.51283,26.4181862 L902.783156,26.4181862 L930.14919,29.5888759 C930.271813,28.5319793 930.394436,27.4750828 930.51283,26.4181862 M872.516457,15.8407655 C872.271211,18.1701655 872.017509,20.4953379 871.746893,22.8162828 L875.987952,23.3109103 L875.987952,19.0706414 L903.349758,19.0706414 L872.516457,15.8407655 M932.610104,4.37132414 L904.343426,4.37132414 L932.424055,6.68804138 C932.487481,5.91862069 932.550907,5.14497241 932.610104,4.37132414 M875.987952,0 L873.975246,0 C873.928734,0.617227586 873.877993,1.23868276 873.827253,1.85591034 L875.987952,2.03346897 L875.987952,0" id="Fill-4" fill-opacity="0.590000033" fill="#A8DEFE"></path>
                    <path d="M754.308042,413.204276 L743.694824,413.204276 L743.694824,413.796138 L749.868249,419.5372 C751.610339,417.664379 753.339744,415.783103 755.060692,413.893372 L754.308042,413.204276 M763.720401,391.051724 L752.18117,391.051724 L760.667516,398.43309 L768.714111,398.43309 C769.229972,397.832772 769.750062,397.228228 770.261696,396.619455 L763.720401,391.051724 M743.694824,374.014552 L743.694824,376.284766 L746.362927,376.284766 L743.694824,374.014552 M772.363197,368.9034 L760.494152,368.9034 L769.568242,376.284766 L781.644478,376.284766 L772.363197,368.9034 M744.515128,346.755076 L743.694824,346.755076 L743.694824,354.136441 L753.796408,354.136441 L744.515128,346.755076 M780.223744,346.755076 L767.978374,346.755076 L777.690948,354.136441 L790.160422,354.136441 L780.223744,346.755076 M751.699135,325.574869 C750.303772,327.451917 748.899952,329.32051 747.483446,331.184876 L748.54054,331.988117 L760.333474,331.988117 L751.699135,325.574869 M787.272443,324.610979 L774.600007,324.610979 L785.014491,331.988117 L797.932173,331.988117 L787.272443,324.610979 M763.965647,308.474283 C763.652747,308.930862 763.335619,309.387441 763.018491,309.839793 L765.940298,309.839793 L763.965647,308.474283 M793.475467,302.462655 L780.320997,302.462655 L791.500817,309.839793 L802.494588,309.839793 L802.494588,308.271359 L793.475467,302.462655 M798.790533,280.314331 L785.086374,280.314331 L797.120325,287.695697 L802.494588,287.695697 L802.494588,282.529586 L798.790533,280.314331 M802.494588,258.170234 L795.420519,258.170234 C794.887744,259.117214 794.354969,260.059966 793.817965,261.002717 L801.81382,265.547372 L802.494588,265.547372 L802.494588,258.170234" id="Fill-5" fill-opacity="0.590000033" fill="#A8DEFE"></path>
                    <path d="M611.405924,527.251869 L611.405924,530.553614 L613.507426,530.553614 L611.405924,527.251869 M628.332104,523.197614 L627.01708,523.197614 L627.423003,523.806386 C627.727446,523.603462 628.027661,523.400538 628.332104,523.197614 M621.194609,501.116931 L612.251599,501.116931 L617.173426,508.472931 L626.23483,508.472931 L621.194609,501.116931 M648.865087,501.116931 L639.49501,501.116931 L644.776249,508.472931 L649.42746,508.472931 C650.480325,507.707738 651.528962,506.942545 652.577599,506.173124 L648.865087,501.116931 M632.640817,479.040476 L623.642837,479.040476 L628.924076,486.396476 L638.044678,486.396476 L632.640817,479.040476 M660.526941,479.040476 L651.072298,479.040476 L656.73409,486.396476 L666.315585,486.396476 L660.526941,479.040476 M617.765398,458.798793 C615.875315,460.185441 613.981003,461.563634 612.078235,462.929145 L613.076131,464.315793 L621.820408,464.315793 L617.765398,458.798793 M643.144097,456.964021 L634.082692,456.964021 L639.744484,464.315793 L648.936969,464.315793 L643.144097,456.964021 M670.20146,456.964021 L661.748941,456.964021 L667.808201,464.315793 L670.20146,464.315793 L670.20146,456.964021 M652.70445,434.883338 L648.315398,434.883338 C647.376699,435.669669 646.433772,436.447545 645.490844,437.225421 L649.621965,442.239338 L658.903246,442.239338 L652.70445,434.883338 M666.780706,418.890379 C666.307128,419.313138 665.83355,419.740124 665.359972,420.162883 L667.930824,420.162883 L666.780706,418.890379" id="Fill-6" fill-opacity="0.590000033" fill="#A8DEFE"></path>
                    <path d="M875.987952,66.3942414 L875.987952,70.5076828 L898.296851,70.5076828 L875.987952,66.3942414 M934.783488,63.1601379 L899.180581,63.1601379 L924.673446,67.5610552 C924.504311,68.5418552 924.330948,69.5268828 924.157585,70.5076828 L934.783488,70.5076828 L934.783488,63.1601379" id="Fill-13" fill-opacity="0.590000033" fill="#A8DEFE"></path>
                    <path d="M899.180581,63.1601379 L875.987952,63.1601379 L875.987952,66.3942414 L898.296851,70.5076828 L924.157585,70.5076828 C924.330948,69.5268828 924.504311,68.5418552 924.673446,67.5610552 L899.180581,63.1601379" id="Fill-14" fill-opacity="0.590000033" fill="#A8DEFE"></path>
                    <path d="M875.987952,88.3142759 L875.987952,92.5503172 L895.328533,92.5503172 L875.987952,88.3142759 M934.783488,85.2027724 L896.372941,85.2027724 L920.37319,90.1786414 C920.208284,90.9692 920.043377,91.7597586 919.878471,92.5503172 L934.783488,92.5503172 L934.783488,85.2027724" id="Fill-15" fill-opacity="0.590000033" fill="#A8DEFE"></path>
                    <path d="M896.372941,85.2027724 L875.987952,85.2027724 L875.987952,88.3142759 L895.328533,92.5503172 L919.878471,92.5503172 C920.043377,91.7597586 920.208284,90.9692 920.37319,90.1786414 L896.372941,85.2027724" id="Fill-16" fill-opacity="0.590000033" fill="#A8DEFE"></path>
                    <path d="M875.987952,110.555607 L875.987952,114.592952 L891.861266,114.592952 L875.987952,110.555607 M934.783488,107.245407 L893.070581,107.245407 L915.320284,112.644034 C915.159606,113.295083 915.003156,113.946131 914.842478,114.592952 L934.783488,114.592952 L934.783488,107.245407" id="Fill-17" fill-opacity="0.590000033" fill="#A8DEFE"></path>
                    <path d="M893.070581,107.245407 L875.987952,107.245407 L875.987952,110.555607 L891.861266,114.592952 L914.842478,114.592952 C915.003156,113.946131 915.159606,113.295083 915.320284,112.644034 L893.070581,107.245407" id="Fill-18" fill-opacity="0.590000033" fill="#A8DEFE"></path>
                    <path d="M875.987952,133.181648 L875.987952,136.639814 L887.890824,136.639814 L875.987952,133.181648 M934.783488,129.292269 L889.273502,129.292269 L909.510498,134.927641 C909.354048,135.498366 909.19337,136.06909 909.032692,136.639814 L934.783488,136.639814 L934.783488,129.292269" id="Fill-19" fill-opacity="0.590000033" fill="#A8DEFE"></path>
                    <path d="M889.273502,129.292269 L875.987952,129.292269 L875.987952,133.181648 L887.890824,136.639814 L909.032692,136.639814 C909.19337,136.06909 909.354048,135.498366 909.510498,134.927641 L889.273502,129.292269" id="Fill-20" fill-opacity="0.590000033" fill="#A8DEFE"></path>
                    <path d="M875.987952,156.171262 L875.987952,158.682448 L883.666678,158.682448 L875.987952,156.171262 M934.783488,151.334903 L885.129696,151.334903 L902.973433,156.957593 C902.791612,157.532545 902.609792,158.107497 902.427972,158.682448 L934.783488,158.682448 L934.783488,151.334903" id="Fill-21" fill-opacity="0.590000033" fill="#A8DEFE"></path>
                    <path d="M885.129696,151.334903 L875.987952,151.334903 L875.987952,156.171262 L883.666678,158.682448 L902.427972,158.682448 C902.609792,158.107497 902.791612,157.532545 902.973433,156.957593 L885.129696,151.334903" id="Fill-22" fill-opacity="0.590000033" fill="#A8DEFE"></path>
                    <path d="M875.987952,179.676641 L875.987952,180.72931 L878.867474,180.72931 L875.987952,179.676641 M934.783488,173.381766 L880.524997,173.381766 L895.713315,178.729662 C895.476526,179.397621 895.239737,180.061352 895.002948,180.72931 L934.783488,180.72931 L934.783488,173.381766" id="Fill-23" fill-opacity="0.590000033" fill="#A8DEFE"></path>
                    <path d="M880.524997,173.381766 L875.987952,173.381766 L875.987952,179.676641 L878.867474,180.72931 L895.002948,180.72931 C895.239737,180.061352 895.476526,179.397621 895.713315,178.729662 L880.524997,173.381766" id="Fill-24" fill-opacity="0.590000033" fill="#A8DEFE"></path>
                    <path d="M934.783488,195.4244 L875.987952,195.4244 L875.987952,195.673828 L887.721689,200.252303 C887.391875,201.093593 887.062062,201.934883 886.732249,202.771945 L934.783488,202.771945 L934.783488,195.4244" id="Fill-25" fill-opacity="0.590000033" fill="#A8DEFE"></path>
                    <path d="M875.987952,195.673828 L875.987952,202.771945 L886.732249,202.771945 C887.062062,201.934883 887.391875,201.093593 887.721689,200.252303 L875.987952,195.673828" id="Fill-26" fill-opacity="0.590000033" fill="#A8DEFE"></path>
                    <path d="M934.783488,217.467034 L875.987952,217.467034 L875.987952,220.20651 L879.011239,221.504379 C878.537661,222.612007 878.059855,223.715407 877.57782,224.818807 L934.783488,224.818807 L934.783488,217.467034" id="Fill-27" fill-opacity="0.590000033" fill="#A8DEFE"></path>
                    <mask id="mask-2" fill="white">
                        <use xlink:href="#path-1"></use>
                    </mask>
                    <g id="Clip-29"></g>
                    <path d="M875.987952,220.20651 L875.987952,224.818807 L877.57782,224.818807 C878.059855,223.715407 878.537661,222.612007 879.011239,221.504379 L875.987952,220.20651" id="Fill-28" fill-opacity="0.590000033" fill="#A8DEFE" mask="url(#mask-2)"></path>
                    <path d="M1217.77163,1070.09085 L1215.8604,1073.32072 C1216.49889,1073.69698 1217.13314,1074.07323 1217.77163,1074.44526 L1217.77163,1070.09085 L1217.77163,1070.09085 Z M1217.77163,1027.42605 L1196.21538,1061.26788 C1198.37608,1062.64184 1200.54523,1064.00735 1202.71862,1065.36018 L1217.77163,1041.14034 L1217.77163,1027.42605 L1217.77163,1027.42605 Z M1210.20284,1000.06511 L1176.98473,1048.56821 C1179.09892,1050.01404 1181.21734,1051.45142 1183.34844,1052.87189 L1216.02531,1004.00099 C1214.07603,1002.6989 1212.1352,1001.38834 1210.20284,1000.06511 L1210.20284,1000.06511 Z M1193.00604,987.868524 L1158.19384,1035.23863 C1160.25729,1036.75633 1162.32919,1038.26135 1164.40955,1039.75369 L1198.6932,991.994648 C1196.79044,990.629138 1194.89612,989.255172 1193.00604,987.868524 L1193.00604,987.868524 Z M1176.22785,975.105441 L1139.85961,1021.29605 C1141.87232,1022.88139 1143.88925,1024.44983 1145.91887,1026.01403 L1181.77548,979.421807 C1179.915,977.992883 1178.0672,976.555503 1176.22785,975.105441 L1176.22785,975.105441 Z M1159.88519,961.797 L1122.00319,1006.75738 C1123.96093,1008.40614 1125.92712,1010.04221 1127.90177,1011.66983 L1165.2806,966.295152 C1163.47508,964.807041 1161.67379,963.306248 1159.88519,961.797 L1159.88519,961.797 Z M1143.99073,947.955883 L1104.64149,991.635303 C1106.54426,993.347476 1108.45125,995.051193 1110.37093,996.738 L1149.23815,952.627366 C1147.47914,951.080069 1145.73282,949.524317 1143.99073,947.955883 L1143.99073,947.955883 Z M1128.56985,933.599 L1087.79142,975.950959 C1089.63499,977.722317 1091.48702,979.485221 1093.35173,981.239669 L1133.65659,938.439586 C1131.95255,936.837331 1130.25698,935.222393 1128.56985,933.599 L1128.56985,933.599 Z M1113.63101,918.739034 L1071.47835,959.717028 C1073.2585,961.5518 1075.05133,963.37389 1076.85684,965.187524 L1118.55707,923.748724 C1116.90377,922.087283 1115.26316,920.417386 1113.63101,918.739034 L1113.63101,918.739034 Z M1099.19957,903.397124 L1055.71075,942.958876 C1057.4317,944.848607 1059.1611,946.729883 1060.90319,948.602703 L1103.95226,908.563234 C1102.35817,906.851062 1100.77253,905.130434 1099.19957,903.397124 L1099.19957,903.397124 Z M1085.28399,887.590179 L1040.50974,925.689186 C1042.16727,927.633876 1043.83325,929.57011 1045.51191,931.502117 L1089.86332,892.908483 C1088.32842,891.141352 1086.80198,889.369993 1085.28399,887.590179 L1085.28399,887.590179 Z M1071.90542,871.330883 L1025.89226,907.924869 C1027.48212,909.928745 1029.08468,911.91571 1030.69569,913.898448 L1076.30293,876.797152 C1074.82722,874.983517 1073.35998,873.161428 1071.90542,871.330883 L1071.90542,871.330883 Z M1059.0723,854.6446 L1011.87097,889.69129 C1013.39318,891.741669 1014.92808,893.787821 1016.47567,895.82129 L1063.28799,860.250379 C1061.87149,858.390241 1060.46767,856.521648 1059.0723,854.6446 L1059.0723,854.6446 Z M1046.80579,837.544014 L998.467024,871.005359 C999.921585,873.106469 1001.38883,875.199124 1002.86453,877.283324 L1050.8312,843.285076 C1049.47812,841.378434 1048.13773,839.463338 1046.80579,837.544014 L1046.80579,837.544014 Z M1035.11857,820.050262 L985.693107,851.888214 C987.075785,854.035828 988.471149,856.174986 989.879197,858.30569 L1038.94947,825.922379 C1037.65982,823.973462 1036.38285,822.01609 1035.11857,820.050262 L1035.11857,820.050262 Z M1024.01909,802.180255 L973.561903,832.360993 C974.872699,834.550883 976.19618,836.736545 977.532346,838.913752 L1027.65126,808.174972 C1026.42926,806.188007 1025.21994,804.188359 1024.01909,802.180255 L1024.01909,802.180255 Z M1013.52426,783.959359 L962.090325,812.440607 C963.329239,814.677 964.576609,816.90071 965.840893,819.120193 L1016.95347,790.072448 C1015.79913,788.038979 1014.65747,786.00551 1013.52426,783.959359 L1013.52426,783.959359 Z M1003.64678,765.404483 L951.291059,792.156648 C952.453862,794.426862 953.629349,796.697076 954.813294,798.954607 L1006.8688,771.623262 C1005.78211,769.555972 1004.7081,767.484455 1003.64678,765.404483 L1003.64678,765.404483 Z M994.3951,746.536766 L941.176789,771.5218 C942.263481,773.83429 943.35863,776.138324 944.470692,778.433903 L997.409931,752.857007 C996.395121,750.755897 995.388768,748.650559 994.3951,746.536766 L994.3951,746.536766 Z M985.786131,727.377345 L931.760201,750.569883 C932.766554,752.916193 933.785592,755.254048 934.821543,757.587676 L988.585315,733.790593 C987.638159,731.65989 986.707917,729.520731 985.786131,727.377345 L985.786131,727.377345 Z M977.824104,707.943131 L923.049751,729.322034 C923.979993,731.697938 924.918692,734.069614 925.874304,736.432834 L980.403412,714.449386 C979.532367,712.28909 978.669779,710.120338 977.824104,707.943131 L977.824104,707.943131 Z M970.517474,688.267945 L915.058125,707.795166 C915.908028,710.200662 916.770616,712.601931 917.641661,714.994745 L972.876907,694.850297 C972.077744,692.660407 971.291266,690.46629 970.517474,688.267945 L970.517474,688.267945 Z M963.874699,668.360241 L907.798007,686.023097 C908.563343,688.453959 909.341363,690.884821 910.136298,693.303 L966.014256,675.014462 C965.291204,672.803434 964.576609,670.583952 963.874699,668.360241 L963.874699,668.360241 Z M957.900007,648.220021 L901.260941,663.997372 C901.945938,666.462055 902.647848,668.92251 903.362443,671.378738 L959.819689,654.971476 C959.168519,652.726628 958.530035,650.477552 957.900007,648.220021 L957.900007,648.220021 Z M952.593398,627.847283 L895.455384,641.713766 C896.055813,644.199586 896.673156,646.685407 897.307412,649.162772 L954.284747,634.657924 C953.709689,632.391938 953.143087,630.125952 952.593398,627.847283 L952.593398,627.847283 Z M947.967557,607.309669 L890.398249,619.248372 C890.918339,621.755331 891.451114,624.258062 892.000803,626.756566 L949.434803,614.171041 C948.931626,611.888145 948.445363,609.601021 947.967557,607.309669 L947.967557,607.309669 Z M944.03517,586.619862 L886.097993,596.630786 C886.533516,599.150428 886.985952,601.670069 887.446844,604.185483 L945.269855,593.531966 C944.847017,591.232159 944.436865,588.928124 944.03517,586.619862 L944.03517,586.619862 Z M940.800464,565.81591 L882.558844,573.882145 C882.909799,576.418697 883.273439,578.951021 883.653993,581.479117 L941.802588,572.761834 C941.455862,570.449345 941.12182,568.132628 940.800464,565.81591 L940.800464,565.81591 Z M938.254983,544.906269 L879.780803,551.032041 C880.04719,553.577048 880.326263,556.122055 880.622249,558.658607 L939.024547,551.886014 C938.758159,549.565069 938.500228,547.235669 938.254983,544.906269 L938.254983,544.906269 Z M936.407183,523.920531 L877.75964,528.105841 C877.94146,530.659303 878.140194,533.208538 878.351612,535.753545 L936.948415,530.925641 C936.75391,528.592014 936.576318,526.258386 936.407183,523.920531 L936.407183,523.920531 Z M935.257066,502.884062 L876.503813,505.133138 C876.601066,507.690828 876.711003,510.24429 876.837855,512.793524 L935.561509,509.901855 C935.447343,507.564 935.345862,505.226145 935.257066,502.884062 L935.257066,502.884062 Z M934.796173,481.839138 L876.000637,482.164662 C876.013322,484.722352 876.04292,487.275814 876.080976,489.829276 L934.872284,488.861159 C934.834228,486.523303 934.808858,484.185448 934.796173,481.839138 L934.796173,481.839138 Z M875.987952,467.304697 L934.783488,467.304697 L934.783488,459.957152 L875.987952,459.957152 L875.987952,467.304697 Z M875.987952,445.262062 L934.783488,445.262062 L934.783488,437.914517 L875.987952,437.914517 L875.987952,445.262062 Z M875.987952,423.2152 L934.783488,423.2152 L934.783488,415.867655 L875.987952,415.867655 L875.987952,423.2152 Z M875.987952,401.172566 L934.783488,401.172566 L934.783488,393.825021 L875.987952,393.825021 L875.987952,401.172566 Z M875.987952,379.129931 L934.783488,379.129931 L934.783488,371.782386 L875.987952,371.782386 L875.987952,379.129931 Z M875.987952,357.083069 L934.783488,357.083069 L934.783488,349.735524 L875.987952,349.735524 L875.987952,357.083069 Z M875.987952,335.040434 L934.783488,335.040434 L934.783488,327.69289 L875.987952,327.69289 L875.987952,335.040434 Z M875.987952,312.993572 L934.783488,312.993572 L934.783488,305.646028 L875.987952,305.646028 L875.987952,312.993572 Z M875.987952,290.950938 L934.783488,290.950938 L934.783488,283.603393 L875.987952,283.603393 L875.987952,290.950938 Z M875.987952,268.904076 L934.783488,268.904076 L934.783488,261.556531 L875.987952,261.556531 L875.987952,268.904076 Z M875.987952,246.861441 L934.783488,246.861441 L934.783488,239.513897 L875.987952,239.513897 L875.987952,246.861441 Z" id="Fill-30" fill-opacity="0.590000033" fill="#A8DEFE" mask="url(#mask-2)"></path>
                    <path d="M790.198478,66.2420483 L762.193958,66.2420483 L788.883453,72.2409931 C789.331661,70.2455724 789.771412,68.2459241 790.198478,66.2420483 M732.99281,52.5658069 C732.519232,54.8275655 732.024512,57.0893241 731.517107,59.3426276 L743.694824,62.0821034 L743.694824,58.8606828 L762.942381,58.8606828 L732.99281,52.5658069" id="Fill-36" fill-opacity="0.590000033" fill="#A8DEFE" mask="url(#mask-2)"></path>
                    <path d="M762.942381,58.8606828 L743.694824,58.8606828 L743.694824,62.0821034 L762.193958,66.2420483 L790.198478,66.2420483 C790.308415,65.7136 790.422581,65.1893793 790.532519,64.660931 L762.942381,58.8606828" id="Fill-37" fill-opacity="0.590000033" fill="#A8DEFE" mask="url(#mask-2)"></path>
                    <path d="M784.997578,88.3861448 L759.073419,88.3861448 L783.27663,94.9093103 C783.864374,92.7405586 784.435204,90.5675793 784.997578,88.3861448 M728.273945,72.875131 C727.703114,75.1242069 727.111142,77.3690552 726.510713,79.6096759 L743.694824,84.2431103 L743.694824,81.0047793 L760.223536,81.0047793 L728.273945,72.875131" id="Fill-38" fill-opacity="0.590000033" fill="#A8DEFE" mask="url(#mask-2)"></path>
                    <path d="M760.223536,81.0047793 L743.694824,81.0047793 L743.694824,84.2431103 L759.073419,88.3861448 L784.997578,88.3861448 C785.082145,88.0521655 785.166713,87.7139586 785.255509,87.3757517 L760.223536,81.0047793" id="Fill-39" fill-opacity="0.590000033" fill="#A8DEFE" mask="url(#mask-2)"></path>
                    <path d="M778.819924,110.530241 L755.208685,110.530241 L776.726879,117.315517 C777.437246,115.057986 778.134927,112.800455 778.819924,110.530241 M722.700948,92.9857586 C722.032865,95.209469 721.352097,97.4247241 720.654415,99.6357517 L743.694824,106.902972 L743.694824,103.153103 L756.595592,103.153103 L722.700948,92.9857586" id="Fill-40" fill-opacity="0.590000033" fill="#A8DEFE" mask="url(#mask-2)"></path>
                    <path d="M756.595592,103.153103 L743.694824,103.153103 L743.694824,106.902972 L755.208685,110.530241 L778.819924,110.530241 C778.887578,110.314634 778.951003,110.0948 779.018657,109.874966 L756.595592,103.153103" id="Fill-41" fill-opacity="0.590000033" fill="#A8DEFE" mask="url(#mask-2)"></path>
                    <path d="M771.635917,132.678566 L750.629356,132.678566 L769.242657,139.417338 C770.054505,137.176717 770.849439,134.931869 771.635917,132.678566 M716.286505,112.838503 C715.525398,115.032621 714.751606,117.218283 713.9609,119.39549 L743.694824,130.163152 L743.694824,125.2972 L752.248824,125.2972 L716.286505,112.838503" id="Fill-42" fill-opacity="0.590000033" fill="#A8DEFE" mask="url(#mask-2)"></path>
                    <path d="M752.248824,125.2972 L743.694824,125.2972 L743.694824,130.163152 L750.629356,132.678566 L771.635917,132.678566 C771.703571,132.479869 771.771225,132.281172 771.843107,132.082476 L752.248824,125.2972" id="Fill-43" fill-opacity="0.590000033" fill="#A8DEFE" mask="url(#mask-2)"></path>
                    <path d="M763.399045,154.822662 L745.356574,154.822662 L760.836651,161.176724 C761.703467,159.062931 762.557599,156.94491 763.399045,154.822662 M709.043301,132.395317 C708.193398,134.555614 707.326581,136.703228 706.44708,138.846614 L743.694824,154.142021 L743.694824,147.441297 L747.204374,147.441297 L709.043301,132.395317" id="Fill-44" fill-opacity="0.590000033" fill="#A8DEFE" mask="url(#mask-2)"></path>
                    <path d="M747.204374,147.441297 L743.694824,147.441297 L743.694824,154.142021 L745.356574,154.822662 L763.399045,154.822662 C763.513211,154.535186 763.627377,154.24771 763.741543,153.960234 L747.204374,147.441297" id="Fill-45" fill-opacity="0.590000033" fill="#A8DEFE" mask="url(#mask-2)"></path>
                    <path d="M700.988249,151.630834 C700.045322,153.748855 699.089709,155.858421 698.121412,157.963759 L751.525772,182.555628 C752.384131,180.69549 753.229806,178.835352 754.062796,176.966759 L743.694824,176.966759 L743.694824,170.574648 L700.988249,151.630834" id="Fill-46" fill-opacity="0.590000033" fill="#A8DEFE" mask="url(#mask-2)"></path>
                    <path d="M743.694824,170.574648 L743.694824,176.966759 L754.062796,176.966759 C754.2869,176.467903 754.506775,175.969048 754.730879,175.470193 L743.694824,170.574648" id="Fill-47" fill-opacity="0.590000033" fill="#A8DEFE" mask="url(#mask-2)"></path>
                    <path d="M692.134035,170.502779 C691.10654,172.582752 690.062131,174.650041 689.005038,176.708876 L741.335391,203.516 C742.130325,201.964476 742.916803,200.412952 743.694824,198.852972 L743.694824,196.016262 L692.134035,170.502779" id="Fill-48" fill-opacity="0.590000033" fill="#A8DEFE" mask="url(#mask-2)"></path>
                    <path d="M743.694824,196.016262 L743.694824,198.852972 C744.075377,198.096234 744.451702,197.335269 744.828028,196.578531 L743.694824,196.016262" id="Fill-49" fill-opacity="0.590000033" fill="#A8DEFE" mask="url(#mask-2)"></path>
                    <path d="M660.958235,224.658159 C659.677038,226.590166 658.387384,228.513717 657.080817,230.424586 L665.546021,236.199469 L670.20146,236.199469 L670.20146,239.374386 L705.652145,263.556179 C707.110934,261.417021 708.55281,259.269407 709.982,257.113338 L660.958235,224.658159 M672.1,207.050262 C670.90337,209.033 669.689827,211.007283 668.467827,212.97311 L718.371093,244.050097 C719.741087,241.855979 721.094166,239.649179 722.434561,237.429697 L672.1,207.050262 M682.497571,188.985786 C681.38128,191.019255 680.256533,193.044269 679.114872,195.0566 L730.273965,224.028248 C731.550934,221.774945 732.81099,219.513186 734.05836,217.242972 L682.497571,188.985786" id="Fill-50" fill-opacity="0.590000033" fill="#A8DEFE" mask="url(#mask-2)"></path>
                    <path d="M670.20146,236.199469 L665.546021,236.199469 L670.20146,239.374386 L670.20146,236.199469" id="Fill-51" fill-opacity="0.590000033" fill="#A8DEFE" mask="url(#mask-2)"></path>
                    <path d="M651.537419,243.559697 L647.807993,243.559697 C646.873522,244.840655 645.930595,246.117386 644.983439,247.38989 L659.617841,258.288607 L670.20146,258.288607 L670.20146,265.648834 L669.49955,265.648834 L692.134035,282.508448 C693.677391,280.432703 695.208062,278.348503 696.726048,276.251621 L651.537419,243.559697" id="Fill-52" fill-opacity="0.590000033" fill="#A8DEFE" mask="url(#mask-2)"></path>
                    <path d="M670.20146,258.288607 L659.617841,258.288607 L669.49955,265.648834 L670.20146,265.648834 L670.20146,258.288607 M649.093419,241.788338 C648.666353,242.3802 648.239287,242.967834 647.807993,243.559697 L651.537419,243.559697 L649.093419,241.788338" id="Fill-53" fill-opacity="0.590000033" fill="#A8DEFE" mask="url(#mask-2)"></path>
                    <path d="M670.20146,284.968903 L670.20146,287.733745 L661.643232,287.733745 L677.842131,300.87731 C679.474284,298.869207 681.089522,296.848421 682.692076,294.819179 L670.20146,284.968903 M645.706491,265.648834 L634.429419,265.648834 L652.577599,280.373517 L664.37899,280.373517 L645.706491,265.648834" id="Fill-54" fill-opacity="0.590000033" fill="#A8DEFE" mask="url(#mask-2)"></path>
                    <path d="M664.37899,280.373517 L652.577599,280.373517 L661.643232,287.733745 L670.20146,287.733745 L670.20146,284.968903 L664.37899,280.373517 M636.53092,258.411207 C635.097502,260.229069 633.651398,262.034248 632.192609,263.830972 L634.429419,265.648834 L645.706491,265.648834 L636.53092,258.411207" id="Fill-55" fill-opacity="0.590000033" fill="#A8DEFE" mask="url(#mask-2)"></path>
                    <path d="M664.442415,309.814428 L652.814388,309.814428 L662.810263,318.633172 C664.518526,316.696938 666.218332,314.748021 667.901225,312.786421 L664.442415,309.814428 M638.71699,287.733745 L627.7951,287.733745 L644.480263,302.458428 L655.871502,302.458428 L638.71699,287.733745 M623.291882,274.492945 C621.782353,276.247393 620.260138,277.993386 618.729467,279.730924 L619.460976,280.373517 L630.146076,280.373517 L623.291882,274.492945" id="Fill-56" fill-opacity="0.590000033" fill="#A8DEFE" mask="url(#mask-2)"></path>
                    <path d="M655.871502,302.458428 L644.480263,302.458428 L652.814388,309.814428 L664.442415,309.814428 L655.871502,302.458428 M630.146076,280.373517 L619.460976,280.373517 L627.7951,287.733745 L638.71699,287.733745 L630.146076,280.373517" id="Fill-57" fill-opacity="0.590000033" fill="#A8DEFE" mask="url(#mask-2)"></path>
                    <path d="M650.717114,331.89511 L643.034159,331.89511 L647.055343,335.750669 C648.281571,334.46971 649.503571,333.184524 650.717114,331.89511 M630.623882,309.814428 L620.014893,309.814428 L635.363889,324.53911 L646.404173,324.53911 L630.623882,309.814428 M609.397446,290.012414 C607.816035,291.703448 606.226166,293.3818 604.623612,295.051697 L612.344623,302.458428 L622.737965,302.458428 L609.397446,290.012414" id="Fill-58" fill-opacity="0.590000033" fill="#A8DEFE" mask="url(#mask-2)"></path>
                    <path d="M646.404173,324.53911 L635.363889,324.53911 L643.034159,331.89511 L650.717114,331.89511 C651.27526,331.303248 651.829176,330.711386 652.383093,330.115297 L646.404173,324.53911 M622.737965,302.458428 L612.344623,302.458428 L620.014893,309.814428 L630.623882,309.814428 L622.737965,302.458428" id="Fill-59" fill-opacity="0.590000033" fill="#A8DEFE" mask="url(#mask-2)"></path>
                    <path d="M594.872983,304.935793 C593.228145,306.563414 591.570623,308.174124 589.900415,309.776379 L625.253848,346.615566 L635.993917,346.615566 L621.469453,331.89511 L611.405924,331.89511 L611.405924,324.53911 L614.213564,324.53911 L594.872983,304.935793" id="Fill-60" fill-opacity="0.590000033" fill="#A8DEFE" mask="url(#mask-2)"></path>
                    <path d="M635.993917,346.615566 L625.253848,346.615566 L630.606969,352.191752 C632.471682,350.403483 634.323709,348.602531 636.163052,346.788897 L635.993917,346.615566 M614.213564,324.53911 L611.405924,324.53911 L611.405924,331.89511 L621.469453,331.89511 L614.213564,324.53911" id="Fill-61" fill-opacity="0.590000033" fill="#A8DEFE" mask="url(#mask-2)"></path>
                    <path d="M0,610.628324 L0,629.749697 L8.96415225,651.276566 L15.750692,648.452538 L0,610.628324 M13.5054256,585.710931 L6.71888581,588.534959 L29.3195433,642.804483 L36.1018547,639.980455 L13.5054256,585.710931 M33.8608166,577.238848 L27.0742768,580.062876 L49.6749343,634.3324 L56.4572457,631.508372 L33.8608166,577.238848 M54.2162076,568.766766 L47.4296678,571.590793 L70.0303253,625.860317 L76.8126367,623.03629 L54.2162076,568.766766 M74.5715986,560.294683 L67.7850588,563.11871 L90.3857163,617.388234 L97.1680277,614.564207 L74.5715986,560.294683 M94.9269896,551.818372 L88.1404498,554.6424 L110.736879,608.911924 L117.523419,606.087897 L94.9269896,551.818372 M115.282381,543.34629 L108.495841,546.170317 L131.09227,600.439841 L137.87881,597.615814 L115.282381,543.34629 M135.633543,534.874207 L128.851232,537.698234 L151.447661,591.967759 L158.234201,589.143731 L135.633543,534.874207 M155.988934,526.402124 L149.206623,529.226152 L171.803052,583.495676 L178.589592,580.671648 L155.988934,526.402124 M176.344325,517.930041 L169.562014,520.754069 L192.158443,575.023593 L198.944983,572.199566 L176.344325,517.930041 M196.699716,509.457959 L189.913176,512.281986 L212.513834,566.55151 L219.300374,563.727483 L196.699716,509.457959 M217.055107,500.981648 L210.268567,503.805676 L232.869225,558.0752 L239.651536,555.251172 L217.055107,500.981648 M237.410498,492.509566 L230.623958,495.333593 L253.224616,549.603117 L260.006927,546.77909 L237.410498,492.509566 M257.765889,484.037483 L250.979349,486.86151 L273.580007,541.131034 L280.362318,538.307007 L257.765889,484.037483 M278.12128,475.5654 L271.33474,478.389428 L293.935398,532.658952 L300.717709,529.834924 L278.12128,475.5654 M298.476671,467.093317 L291.690131,469.917345 L314.286561,524.186869 L321.0731,521.362841 L298.476671,467.093317 M318.827834,458.621234 L312.045522,461.441034 L334.641952,515.714786 L341.428491,512.890759 L318.827834,458.621234 M339.183225,450.144924 L332.400913,452.968952 L354.997343,507.238476 L361.783882,504.414448 L339.183225,450.144924 M359.538616,441.672841 L352.756304,444.496869 L375.352734,498.766393 L382.139273,495.942366 L359.538616,441.672841 M379.894007,433.200759 L373.111696,436.024786 L395.708125,490.29431 L402.494664,487.470283 L379.894007,433.200759 M400.249398,424.728676 L393.462858,427.552703 L416.063516,481.822228 L422.850055,478.9982 L400.249398,424.728676 M420.604789,416.256593 L413.818249,419.080621 L436.418907,473.350145 L443.201218,470.526117 L420.604789,416.256593 M440.427405,408.76531 C438.304761,409.674241 436.173661,410.57049 434.038332,411.449828 L456.419114,465.808131 C458.808145,464.823103 461.192948,463.825393 463.565066,462.810772 L440.427405,408.76531 M459.349377,400.195993 C457.269017,401.189476 455.184429,402.170276 453.087156,403.138393 L477.725889,456.515897 C480.068408,455.433634 482.402471,454.334462 484.728076,453.222607 L459.349377,400.195993 M477.903481,390.840345 C475.865405,391.922607 473.818872,392.992186 471.763882,394.044855 L498.605599,446.344324 C500.901606,445.164828 503.189156,443.972648 505.468249,442.763559 L477.903481,390.840345 M496.051661,380.715276 C494.060097,381.88209 492.060076,383.036221 490.051599,384.173441 L519.049785,435.310324 C521.295052,434.037821 523.531862,432.752634 525.760215,431.44631 L496.051661,380.715276 M513.772775,369.841924 C511.831952,371.089062 509.878443,372.327745 507.916478,373.549517 L539.020394,423.435034 C541.210692,422.069524 543.392533,420.687103 545.565917,419.292 L513.772775,369.841924 M531.032997,358.2372 C529.142913,359.564662 527.244374,360.879441 525.333149,362.185766 L558.483599,410.735366 C560.618927,409.281076 562.741571,407.809876 564.851529,406.325993 L531.032997,358.2372 M547.802727,345.922241 C545.967612,347.3258 544.124042,348.720903 542.267785,350.103324 L577.405571,397.236683 C579.477474,395.693614 581.536692,394.137862 583.587453,392.5652 L547.802727,345.922241 M564.052367,332.918186 C562.27645,334.397841 560.492076,335.869041 558.695017,337.327559 L595.752484,382.964352 C597.760962,381.336731 599.752526,379.696428 601.735633,378.039214 L564.052367,332.918186 M579.752318,319.246172 C578.039827,320.801924 576.314651,322.344993 574.581017,323.875379 L613.498969,367.93951 C615.435564,366.231566 617.359474,364.50671 619.270699,362.7734 L579.752318,319.246172" id="Fill-62" fill-opacity="0.590000033" fill="#A8DEFE" mask="url(#mask-2)"></path>
                </g>
            </g>
        </g>
    </g>
</svg>