<svg xmlns="http://www.w3.org/2000/svg" viewBox="209 144 1217.772 1208.984">
  <defs>
    <style>
      .cls-1 {
        opacity: 0.388;
      }

      .cls-2 {
        fill: rgba(94,44,92,0.78);
        fill-rule: evenodd;
      }
    </style>
  </defs>
  <g id="raiteet" class="cls-1" transform="translate(224 207)">
    <g id="Ideas-Illustrations">
      <g id="Imported-Layers" transform="translate(-15 -63)">
        <g id="Group">
          <path id="Fill-1" class="cls-2" d="M670.2,1201.6h-58.8v7.381h58.8V1201.6m0-22.157h-58.8v7.381h58.8v-7.381m0-22.161h-58.8v7.386h58.8v-7.386m0-22.161h-58.8v7.386h58.8v-7.386m0-22.165h-58.8v7.385h58.8v-7.385m0-22.17h-58.8v7.386h58.8v-7.386m0-22.182h-58.8V1076h58.8v-7.39m0-22.191h-58.8v7.394h58.8v-7.394m0-22.22h-58.8v7.4h58.8v-7.4m-58.707-23.091q-.089,3.095-.089,6.219v2.012h58.8v-2.012c0-1.522.021-3.027.063-4.523l-58.77-1.691v0m2.262-25.488q-.622,4.192-1.091,8.459l58.449,6.367q.336-3.095.795-6.147l-58.153-8.679M618.97,950.7q-1.091,4.059-2.047,8.21l57.3,13.156q.7-3.056,1.518-6.088L618.97,950.7m7.78-23.856q-1.478,3.868-2.846,7.817l55.569,19.2q1.046-3.025,2.2-6.037l-54.922-20.982M636.51,904.3q-1.757,3.646-3.438,7.369l53.612,24.144q1.351-3,2.795-5.995L636.51,904.3m11.15-21.273q-1.947,3.45-3.835,6.959l51.764,27.872q1.611-2.987,3.3-5.978L647.66,883.029m64-13.376L704.971,874l12.233,7.918q1.954-3.012,3.941-6.045l-9.484-6.223m-52.022-6.773q-2.042,3.285-4.055,6.608l50.3,30.443c.393-.647.782-1.289,1.18-1.936l-.161.1q-1.82-2.98-3.7-5.974l1.712-1.07L659.639,862.88m72.183-6.333-6.757,4.392,4.135,2.748q2.042-3.069,4.093-6.168l-1.471-.972m-40.153,0-6.748,4.477,13.387,8.667,6.694-4.4-13.332-8.743m-19.687-12.907q-2.068,3.145-4.131,6.333l13.577,8.789c-.66-.989-1.315-1.979-1.975-2.976l5.5-3.64-12.973-8.506m39.751-.406-6.681,4.435,13.315,8.831,6.715-4.418-13.349-8.848m-20-13.258-6.74,4.384,13.4,8.886,6.685-4.426-13.345-8.844m40.186-.14-6.77,4.5,13.51,8.819,2.055-1.349c.486.744.973,1.484,1.463,2.228q1.738-2.663,3.476-5.361l-13.734-8.836m-47.633-4.794c-.355.537-.71,1.078-1.07,1.615L685,825.512l-.715-.474m27.535-8.138-6.7,4.359,13.332,8.7,6.732-4.456-13.366-8.6M696.21,806.856q-1.941,3.006-3.911,6.029l6.148,4.016,6.7-4.3-8.939-5.75m11.209-17.98c-.156.262-.313.524-.469.782q1.091,1.82,2.207,3.636l-3.97,2.431,48.639,29.986q2.03-3.285,4.03-6.62L707.42,788.876M717.6,770.934q-1.592,3-3.26,5.986l51.366,28.6q1.928-3.456,3.8-6.967l-51.9-27.619m8.85-18.035q-1.351,3.025-2.786,6.029l53.075,25.3q1.738-3.653,3.4-7.373L726.452,752.9m7.23-18.212q-1.059,3.063-2.216,6.1L786.414,761.7q1.472-3.856,2.833-7.8l-55.565-19.219m5.362-18.377q-.729,3.095-1.569,6.151l56.707,15.524q1.1-4.02,2.076-8.13L739.044,716.31m3.357-18.584q-.393,3.133-.892,6.219l58.043,9.389q.672-4.141,1.2-8.366L742.4,697.725m1.281-18.8q-.044,3.177-.2,6.291l58.724,2.917q.209-4.185.266-8.438l-58.791-.769m58.812-21.835h-58.8V664.5h58.8v-7.407m0-22.237h-58.8v7.394h58.8v-7.394m0-22.2h-58.8v7.39h58.8v-7.39m0-22.182h-58.8v7.386h58.8v-7.386m0-22.174h-58.8v7.386h58.8V568.3m0-22.165h-58.8v7.386h58.8v-7.386m0-22.161h-58.8v7.386h58.8v-7.386m0-22.157h-58.8V509.2h58.8v-7.381m0-22.157h-58.8v7.381h58.8v-7.381m0-22.157h-58.8v7.381h58.8v-7.381m0-22.148h-58.8v7.377h58.8v-7.377m0-22.153H754.308l.753.689q-2.581,2.835-5.192,5.644l-6.173-5.741v6.789h58.8V413.2m-50.313-22.153h-8.486v7.381h16.973l-8.486-7.381m50.313,0H763.72l6.541,5.568c-.512.609-1.032,1.213-1.548,1.814h33.78v-7.381m-42-22.148h-16.8v5.111l2.668,2.27h23.205l-9.074-7.381m42,0H772.363l9.281,7.381h20.85V368.9m-34.516-22.148H744.515l9.281,7.381h23.895l-9.713-7.381m34.516,0H780.224l9.937,7.381h12.334v-7.381M774.6,324.611H743.695v7.377h4.846l-1.057-.8q2.125-2.8,4.216-5.61l8.634,6.413h24.681L774.6,324.611m27.895,0H787.272l10.66,7.377h4.562v-7.377m-22.174-22.148H743.695v7.377h19.324c.317-.452.634-.909.947-1.366l1.975,1.366H791.5l-11.18-7.377m22.174,0h-9.019l9.019,5.809v-5.809m-17.408-22.148H743.695V287.7H797.12l-12.034-7.381m17.408,0h-3.7l3.7,2.215v-2.215m-7.074-22.144H743.695v7.377h58.119l-8-4.545q.805-1.414,1.6-2.832m7.074-22.148h-58.8V243.4h58.8v-7.381m0-22.144h-58.8v7.377h58.8v-7.377m0-22.144h-58.8v4.283l1.133.562c-.376.757-.753,1.518-1.133,2.274v.258h58.8v-7.377m0-22.148h-58.8v.989l11.036,4.9c-.224.5-.444,1-.668,1.5h48.432v-7.381m-58.8-15.443v.681h1.662l-1.662-.681m58.8-6.7H747.2l16.537,6.519-.342.862h39.1v-7.381m-58.8-17.278v2.515h6.935l-6.935-2.515m58.8-4.866H752.249l19.594,6.785c-.072.2-.14.4-.207.6h30.859V125.3m-58.8-18.394v3.627h11.514L743.695,106.9m58.8-3.75H756.6l22.423,6.722c-.068.22-.131.44-.2.655h23.675v-7.377m-58.8-18.91v4.143h15.379l-15.379-4.143M802.495,81H760.224l25.032,6.371c-.089.338-.173.676-.258,1.01h17.5V81m-58.8-18.923v4.16h18.5l-18.5-4.16m58.8-3.221H762.942l27.59,5.8c-.11.528-.224,1.053-.334,1.581h12.3V58.861m-58.8-18.453v3.686H764.05l-20.355-3.686m58.8-3.725H764.224l30.622,5.111c-.131.769-.258,1.535-.389,2.3h8.038V36.683m-58.8-17.629v2.824h20.4l-20.4-2.824m58.8-4.57H763.729l34.465,4.287c-.127,1.036-.258,2.076-.393,3.107h4.693V14.484"/>
          <path id="Fill-2" class="cls-2" d="M802.495,1198.132h-58.8v7.356h58.8v-7.356Zm0-22.072h-58.8v7.352h58.8v-7.352Zm0-22.081h-58.8v7.356h58.8v-7.356Zm0-22.081h-58.8v7.356h58.8V1131.9Zm0-22.081h-58.8v7.356h58.8v-7.356Zm0-22.093h-58.8v7.36h58.8v-7.36Zm0-22.1h-58.8v7.364h58.8v-7.364Zm0-22.115h-58.8v7.369h58.8v-7.369Zm0-22.148h-58.8v7.377h58.8v-7.377Zm-.207-23.459-58.741,2.57q.133,3.063.148,6.185l58.8-.249q-.019-4.287-.2-8.506Zm-2.626-25.344-58.022,9.512q.495,3.037.88,6.117l58.352-7.221q-.526-4.242-1.209-8.409Zm-5.526-24.714-56.571,16q.85,3.018,1.594,6.058l57.121-13.921q-1-4.109-2.144-8.138Zm-8-23.6-54.7,21.556q1.18,2.987,2.254,5.986l55.349-19.832q-1.4-3.894-2.9-7.711Zm-9.907-22.317-52.762,25.945q1.465,2.98,2.841,5.965l53.4-24.613q-1.693-3.684-3.476-7.3ZM765.01,880.864,713.944,910q1.706,2.98,3.332,5.957l51.59-28.2q-1.9-3.475-3.856-6.891Zm-66.7-11.178-6.719,4.418q1.992,3.031,3.949,6.033L704.971,874l-6.664-4.316Zm54.711-8.789-48.106,30.151,4.647,2.887q-1.262,2.036-2.5,4.058l50.017-30.544q-2.017-3.3-4.059-6.553Zm-71.591-2.139q1.053,1.592,2.11,3.183l1.383-.922-3.493-2.262Zm36.939-2.262L705,865.285l6.66,4.367,13.4-8.713-6.7-4.443Zm-19.975-13.253-13.438,8.9,6.715,4.4,13.383-8.878-6.66-4.422Zm40.267-.093-13.577,8.929,6.74,4.469,13.006-8.455q-1.326-2.042-2.651-4.063c-.216.334-.431.664-.647.994l-2.871-1.873Zm-20.2-13.19-13.379,8.857,6.655,4.414,13.417-8.9-6.693-4.371Zm-35.239-3.306-16.072,10.294q2.042,3.2,4.1,6.35l13.746-8.941-4.782-3.175q1.51-2.27,3.006-4.528Zm45.261-3.327-3.29,2.177,6.732,4.329.609-.4q-2.036-3.063-4.051-6.1Zm-30.03-6.426L685,825.512l6.732,4.46,13.391-8.713-6.677-4.359Zm18.2-11.66-11.5,7.364,6.672,4.3,8.706-5.661q-1.954-3.006-3.877-6Zm-11.087-17.9L655.017,817.37q1.985,3.342,4,6.625l46.174-28.27-1.4-.867q1.6-2.6,3.167-5.2c-.465-.774-.93-1.547-1.387-2.317Zm-10.047-17.878-52.039,27.361q1.846,3.513,3.755,6.967l51.5-28.363q-1.643-2.98-3.214-5.965Zm-8.694-17.976-53.84,23.624q1.636,3.729,3.353,7.377L689.555,757.5q-1.408-3-2.732-6.012Zm-7.074-18.162-55.7,18.825q1.338,3.938,2.774,7.8l55.091-20.542q-1.129-3.031-2.165-6.083ZM674.548,715l-57.311,13.118q.939,4.1,2.008,8.121l56.821-15.105q-.812-3.05-1.518-6.134Zm-3.2-18.529-58.4,6.815q.488,4.211,1.129,8.345l58.111-8.958c-.317-2.05-.6-4.113-.841-6.2Zm-1.142-18.732-58.8.368q.025,4.236.2,8.4l58.745-2.5q-.133-3.1-.152-6.269Zm0-21.95h-58.8v7.377h58.8v-7.377Zm-58.8-22.131v7.369h58.8V633.66Zm0-22.11v7.364h58.8v-7.36l-58.8,0Zm58.8-22.093h-58.8v7.356h58.8v-7.356Zm0-22.089h-58.8v7.356h58.8v-7.356Zm-58.8-22.089v7.36h58.8v-7.356h-58.8ZM670.2,523.2H628.332l-.909.609-.406-.609H611.406v4.054l2.1,3.3H670.2V523.2Zm-57.95-22.081h-.846v7.356h5.767l-4.922-7.356Zm27.243,0h-18.3l5.04,7.356h18.541l-5.281-7.356Zm30.706,0H648.865l3.712,5.056q-1.573,1.154-3.15,2.3H670.2v-7.356ZM651.072,479.04H632.641l5.4,7.356h18.689l-5.662-7.356Zm19.129,0h-9.675l5.789,7.356H670.2V479.04Zm-58.8,0V486.4h17.518l-5.281-7.356Zm50.343-22.076h-18.6l5.793,7.352h18.871l-6.059-7.352Zm-50.343,0v7.356h1.67l-1-1.387q2.854-2.048,5.687-4.13l4.055,5.517h17.924l-5.662-7.352-22.677,0Zm36.909-22.076H611.406v7.356h38.216l-4.131-5.014q1.414-1.167,2.825-2.342Zm21.886,0H652.7l6.2,7.356h11.3v-7.356Zm0-22.076h-58.8v7.356H665.36c.474-.423.947-.85,1.421-1.272l1.15,1.272H670.2v-7.356Zm0-22.085h-58.8v7.352h58.8v-7.352Zm0-22.03h-58.8v7.356h58.8v-7.356Zm0-22.076H635.994l.169.173q-2.759,2.72-5.556,5.4l-5.353-5.576H611.406v7.356h58.8v-7.356Zm-34.838-22.076h-21.15l7.256,7.356h21.565l-7.67-7.356Zm34.838,0H646.4l5.979,5.576q-.831.894-1.666,1.78H670.2v-7.356Zm-57.857-22.081h-.939v7.356h8.609l-7.67-7.356Zm32.136,0H622.738l7.886,7.356h22.19l-8.334-7.356Zm25.721,0h-14.33l8.571,7.356H670.2v-7.356Zm-50.74-22.085h-8.055v7.36H627.8l-8.334-7.36Zm33.117,0H630.146l8.571,7.36h22.926l-9.066-7.36Zm17.624,0h-5.823l5.823,4.6v-4.6Zm-10.584-22.085H611.406v7.36h23.023l-2.237-1.818q2.188-2.7,4.338-5.42l9.176,7.238H669.5l-9.882-7.36Zm5.928-22.089h-54.14v7.36h36.4c.431-.592.858-1.179,1.285-1.771l2.444,1.771H670.2v-4.185l-4.655-3.175Zm4.655-22.1h-58.8v7.364h58.8V214.1Zm0-22.11h-58.8v7.364h58.8v-7.364Zm0-22.14h-58.8v7.377h58.8v-7.377Zm0-22.262h-58.8v7.466h58.8v-7.466Zm-58.8-14.7h58.8v-7.348h-58.8Zm0-22.047h58.8V103.5h-58.8Zm0-22.043h58.8V81.453h-58.8Zm0-22.047h58.8V59.406h-58.8Zm0-22.043h58.8V37.363h-58.8Zm0-22.043h58.8V15.321h-58.8Zm0-22.047h58.8V0h-58.8Z"/>
          <path id="Fill-3" class="cls-2" d="M704.912,891.048l-1.712,1.07q1.877,2.993,3.7,5.974l.161-.1q1.237-2.023,2.5-4.058l-4.647-2.887M705,865.285l-6.694,4.4L704.971,874l6.689-4.35L705,865.285m-20.047-13.144-5.5,3.64c.66,1,1.315,1.987,1.975,2.976l3.493,2.262,6.748-4.477-6.715-4.4m40.127-.063-6.715,4.418,6.7,4.443,6.757-4.392-6.74-4.469M740.714,841.8l-2.055,1.349,2.871,1.873c.216-.33.431-.66.647-.994-.49-.744-.977-1.484-1.463-2.228m-35.637-2.985-6.685,4.426,6.66,4.422,6.681-4.435-6.655-4.414M685,825.512l-1.784,1.141q-1.5,2.258-3.006,4.528l4.782,3.175,6.74-4.384L685,825.512m40.186-.008-6.732,4.456,6.693,4.371,6.77-4.5-6.732-4.329m-20.038-12.9-6.7,4.3,6.677,4.359,6.7-4.359-6.672-4.3m1.8-22.947q-1.567,2.6-3.167,5.2l1.4.867,3.97-2.431q-1.116-1.814-2.207-3.636"/>
          <path id="Fill-4" class="cls-2" d="M0,789.134V799.1l3.535-1.471L0,789.134m1.29-54.248L0,735.422V750.9l17.1,41.079,6.787-2.824-22.6-54.27m20.355-8.472-6.787,2.824,22.6,54.265,6.787-2.824-22.6-54.265M42,717.937l-6.787,2.824,22.6,54.27,6.787-2.824L42,717.937m20.355-8.472-6.787,2.824,22.6,54.27,6.787-2.824-22.6-54.269m20.351-8.476-6.782,2.828,22.6,54.27,6.782-2.828-22.6-54.27m20.355-8.472-6.782,2.824,22.6,54.27,6.782-2.824-22.6-54.27m20.355-8.472-6.782,2.824,22.6,54.27,6.787-2.824-22.6-54.27m20.355-8.476-6.787,2.828,22.6,54.265,6.787-2.824-22.6-54.27m20.355-8.472-6.787,2.824,22.6,54.27,6.787-2.824-22.6-54.27m20.355-8.472-6.787,2.824,22.6,54.27,6.782-2.824-22.6-54.27m20.351-8.472-6.782,2.824,22.6,54.265,6.782-2.824-22.6-54.265m20.355-8.476-6.782,2.824,22.6,54.27,6.787-2.824-22.6-54.27m20.355-8.472-6.787,2.824,22.6,54.27,6.787-2.824-22.6-54.27m20.355-8.472-6.787,2.824,22.6,54.269L288.5,679l-22.6-54.265m20.355-8.476-6.787,2.824,22.6,54.27,6.782-2.824-22.6-54.27m20.351-8.472-6.782,2.824,22.6,54.27,6.782-2.824-22.6-54.27m20.355-8.472-6.782,2.824,22.6,54.269,6.782-2.824-22.6-54.27m20.355-8.476-6.787,2.824,22.6,54.27,6.787-2.824-22.6-54.27m20.355-8.472-6.787,2.824,22.6,54.27,6.787-2.824-22.6-54.27m20.355-8.472-6.787,2.824,22.6,54.27,6.782-2.828-22.6-54.265m20.355-8.476-6.787,2.824,22.6,54.269,6.782-2.824-22.6-54.27m20.351-8.472-6.782,2.824,22.6,54.27,6.782-2.824-22.6-54.27m20.355-8.472-6.787,2.824,22.6,54.27,6.787-2.824-22.6-54.269m20.355-8.476-6.787,2.828,22.6,54.265,6.787-2.824-22.6-54.27m20.241-8.4q-3.241,1.37-6.495,2.7l22.271,54.4q3.558-1.459,7.1-2.955l-22.88-54.151m19.3-8.535q-3.19,1.477-6.4,2.917L526.674,579.6q3.507-1.579,7-3.192l-24.689-53.352m19-9.178q-3.14,1.585-6.3,3.133l25.873,52.786q3.457-1.693,6.888-3.424l-26.461-52.494m98.25-5.4h-9.061l9.844,14.725h1.315q2.734-1.833,5.455-3.695l-7.552-11.03m23.193,0h-4.651l1.586,2.211q1.535-1.1,3.066-2.211m-102.766-4.4q-3.082,1.68-6.19,3.336L568.1,559.3q3.393-1.807,6.77-3.653l-28.207-51.577M565,493.647q-3.025,1.788-6.076,3.543l29.345,50.938q3.336-1.915,6.643-3.872L565,493.647m73.045-7.25h-9.121l10.571,14.72h9.37l-10.82-14.72m28.271,0h-9.582l8.118,10.548q3.044-2.34,6.059-4.714l-4.6-5.834m-83.341-3.779q-2.968,1.89-5.954,3.746l31.032,49.928q3.266-2.023,6.5-4.088l-1.049-1.649h-2.1v-3.3l-28.432-44.635M600.569,471q-2.9,1.991-5.822,3.94l17.505,26.181h8.943L600.569,471m21.252-6.68h-8.744l10.567,14.725h9l-10.82-14.725m27.117,0h-9.192l11.328,14.725h9.455l-11.59-14.725M634.544,446.04q-2.759,2.169-5.543,4.316l5.083,6.608h9.061l-8.6-10.924m24.36-3.8h-9.281l12.127,14.725H670.2v7.352h-2.393L682.87,482.6q2.962-2.441,5.9-4.912L658.9,442.239m-8.013-9.508c-.858.719-1.713,1.437-2.575,2.152H652.7l-1.814-2.152m17.04-12.569H665.36q-1.9,1.706-3.822,3.4L700.4,467.672q2.88-2.537,5.729-5.1l-38.2-42.407m14.275-15.629q-2.531,2.429-5.091,4.841l40.3,42.8q2.8-2.632,5.56-5.289l-40.774-42.352m86.508-6.1h-8.047l4.592,4q1.738-1.991,3.455-4m-71.574-8.76q-2.448,2.518-4.922,5.005l41.7,41.443q2.708-2.72,5.378-5.47L697.14,389.674m84.5-13.389H769.568l10.508,8.548q2.417-2.974,4.808-5.974l-3.239-2.575m-70.073-1.953q-2.359,2.594-4.753,5.166l36.876,34.3V413.2h10.613l-42.736-38.873m13.916-15.811q-2.277,2.676-4.579,5.323l31.273,27.209H763.72l-17.357-14.767h-2.668v-2.27L725.487,358.52m64.673-4.384H777.691l16.6,12.619q2.321-3.057,4.6-6.13l-8.74-6.489m-51.294-11.871q-2.182,2.746-4.4,5.466L760.494,368.9h11.869L753.8,354.136h-10.1v-7.381h.82l-5.649-4.49m21.467-10.277H748.541l19.438,14.767h12.245l-19.89-14.767m37.6,0H785.014l22.892,16.23q2.22-3.126,4.4-6.278l-14.372-9.952M765.94,309.84h-2.922q-1.529,2.2-3.078,4.38l14.66,10.391h12.672L765.94,309.84m36.554-1.568v1.568H791.5l29.391,19.4q2.112-3.2,4.19-6.417l-22.588-14.551m-26.837-17.291q-1.9,2.949-3.831,5.876l8.495,5.606h13.154l-17.818-11.482m26.837-8.451V287.7H797.12l36.123,22.148q2-3.266,3.966-6.553L802.495,282.53m-15.742-9.415q-1.795,3.006-3.632,5.995l1.966,1.2h13.7l-12.038-7.2m10.495-18.221q-.907,1.642-1.827,3.276h7.074v7.377h-.681l43.121,24.507q1.89-3.329,3.746-6.68l-51.434-28.481m9.877-18.555q-1.592,3.12-3.222,6.219l52.055,27.331q1.782-3.393,3.522-6.8l-52.356-26.748m9.252-18.868q-1.49,3.164-3.011,6.32L866.3,249.368q1.668-3.443,3.294-6.912l-53.218-24.985m8.609-19.164q-1.376,3.221-2.795,6.417l53.764,23.8q.818-1.852,1.624-3.7h-1.59v-4.612l-51-21.9M895,180.729H878.867l14.262,5.2q.945-2.594,1.873-5.2m-62.051-1.852q-1.275,3.259-2.583,6.5L884.9,207.367q.92-2.3,1.831-4.6H875.988v-7.1l-43.036-16.8m7.3-19.679q-1.161,3.3-2.359,6.587l38.093,13.892v-6.295h4.537L840.254,159.2m62.174-.516H883.667l16.968,5.555q.907-2.771,1.793-5.555M846.9,139.295q-1.053,3.336-2.14,6.654l31.231,10.222v-4.836h9.142L846.9,139.295m62.136-2.655H887.891l19.518,5.673q.825-2.835,1.624-5.673m-56.161-17.485q-.939,3.38-1.92,6.751l25.036,7.276v-3.889h13.286l-36.4-10.138m61.971-4.562H891.861l21.607,5.5q.7-2.746,1.374-5.5m-56.66-15.811q-.831,3.412-1.7,6.811l19.5,4.963v-3.31h17.083l-34.888-8.464m61.7-6.231h-24.55l23.446,5.137q.558-2.562,1.1-5.137M862.8,78.24q-.71,3.437-1.463,6.866l14.647,3.209V85.2h20.385L862.8,78.24m61.354-7.732H898.3l25.028,4.608q.425-2.3.833-4.608M866.736,57.554q-.6,3.462-1.235,6.912l10.486,1.928V63.16h23.193l-32.444-5.606m60.96-9.094H900.779l26.339,3.949q.3-1.972.579-3.949M869.975,36.746q-.482,3.481-1,6.95l7.015,1.048V41.113H901.5l-31.527-4.367m60.538-10.328h-27.73l27.366,3.171q.184-1.585.364-3.171m-58-10.577q-.368,3.494-.77,6.976l4.241.495v-4.24H903.35l-30.833-3.23M932.61,4.371H904.343l28.081,2.317c.063-.769.127-1.543.186-2.317M875.988,0h-2.013c-.047.617-.1,1.239-.148,1.856l2.161.178V0"/>
          <path id="Fill-5" class="cls-2" d="M754.308,413.2H743.695v.592l6.173,5.741q2.613-2.809,5.192-5.644l-.753-.689m9.412-22.153H752.181l8.486,7.381h8.047c.516-.6,1.036-1.2,1.548-1.814l-6.541-5.568m-20.026-17.037v2.27h2.668l-2.668-2.27m28.668-5.111H760.494l9.074,7.381h12.076l-9.281-7.381m-27.848-22.148h-.82v7.381h10.1l-9.281-7.381m35.709,0H767.978l9.713,7.381H790.16l-9.937-7.381M751.7,325.575q-2.093,2.816-4.216,5.61l1.057.8h11.793l-8.634-6.413m35.573-.964H774.6l10.414,7.377h12.918l-10.66-7.377m-23.307-16.137c-.313.457-.63.913-.947,1.366h2.922l-1.975-1.366m29.51-6.012H780.321l11.18,7.377h10.994v-1.568l-9.019-5.809m5.315-22.148h-13.7L797.12,287.7h5.374V282.53l-3.7-2.215m3.7-22.144h-7.074q-.8,1.42-1.6,2.832l8,4.545h.681V258.17"/>
          <path id="Fill-6" class="cls-2" d="M611.406,527.252v3.3h2.1l-2.1-3.3m16.926-4.054h-1.315l.406.609.909-.609m-7.138-22.081h-8.943l4.922,7.356h9.061l-5.04-7.356m27.671,0h-9.37l5.281,7.356h4.651q1.579-1.148,3.15-2.3l-3.712-5.056M632.641,479.04h-9l5.281,7.356h9.121l-5.4-7.356m27.886,0h-9.455l5.662,7.356h9.582l-5.789-7.356M617.765,458.8q-2.835,2.08-5.687,4.13l1,1.387h8.744l-4.055-5.517m25.379-1.835h-9.061l5.662,7.352h9.192l-5.793-7.352m27.057,0h-8.453l6.059,7.352H670.2v-7.352m-17.5-22.081h-4.389q-1.408,1.18-2.825,2.342l4.131,5.014H658.9l-6.2-7.356m14.076-15.993c-.474.423-.947.85-1.421,1.272h2.571l-1.15-1.272"/>
          <path id="Fill-13" class="cls-2" d="M875.988,66.394v4.113H898.3l-22.309-4.113m58.8-3.234h-35.6l25.493,4.4c-.169.981-.343,1.966-.516,2.947h10.626V63.16"/>
          <path id="Fill-14" class="cls-2" d="M899.181,63.16H875.988v3.234L898.3,70.508h25.861c.173-.981.347-1.966.516-2.947l-25.493-4.4"/>
          <path id="Fill-15" class="cls-2" d="M875.988,88.314V92.55h19.341l-19.341-4.236m58.8-3.112H896.373l24,4.976-.495,2.372h14.905V85.2"/>
          <path id="Fill-16" class="cls-2" d="M896.373,85.2H875.988v3.112l19.341,4.236h24.55l.495-2.372-24-4.976"/>
          <path id="Fill-17" class="cls-2" d="M875.988,110.556v4.037h15.873l-15.873-4.037m58.8-3.31H893.071l22.25,5.4c-.161.651-.317,1.3-.478,1.949h19.941v-7.348"/>
          <path id="Fill-18" class="cls-2" d="M893.071,107.245H875.988v3.31l15.873,4.037h22.981c.161-.647.317-1.3.478-1.949l-22.25-5.4"/>
          <path id="Fill-19" class="cls-2" d="M875.988,133.182v3.458h11.9l-11.9-3.458m58.8-3.889h-45.51l20.237,5.635c-.156.571-.317,1.141-.478,1.712h25.751v-7.348"/>
          <path id="Fill-20" class="cls-2" d="M889.273,129.292H875.988v3.889l11.9,3.458h21.142c.161-.571.321-1.141.478-1.712l-20.237-5.635"/>
          <path id="Fill-21" class="cls-2" d="M875.988,156.171v2.511h7.679l-7.679-2.511m58.8-4.836H885.13l17.844,5.623-.545,1.725h32.356v-7.348"/>
          <path id="Fill-22" class="cls-2" d="M885.13,151.335h-9.142v4.836l7.679,2.511h18.761l.545-1.725-17.844-5.623"/>
          <path id="Fill-23" class="cls-2" d="M875.988,179.677v1.053h2.88l-2.88-1.053m58.8-6.295H880.525l15.188,5.348c-.237.668-.474,1.332-.71,2h39.781v-7.348"/>
          <path id="Fill-24" class="cls-2" d="M880.525,173.382h-4.537v6.295l2.88,1.053H895c.237-.668.474-1.332.71-2l-15.188-5.348"/>
          <path id="Fill-25" class="cls-2" d="M934.784,195.424h-58.8v.249l11.734,4.578q-.495,1.262-.989,2.52h48.051v-7.348"/>
          <path id="Fill-26" class="cls-2" d="M875.988,195.674v7.1h10.744q.495-1.256.989-2.52l-11.734-4.578"/>
          <path id="Fill-27" class="cls-2" d="M934.784,217.467h-58.8v2.739l3.023,1.3q-.71,1.661-1.433,3.314h57.206v-7.352"/>
          <path id="Fill-28" class="cls-2" d="M875.988,220.207v4.612h1.59q.723-1.655,1.433-3.314l-3.023-1.3"/>
          <path id="Fill-30" class="cls-2" d="M1217.772,1070.091l-1.911,3.23c.639.376,1.273.753,1.911,1.125v-4.354Zm0-42.665-21.556,33.842q3.241,2.061,6.5,4.092l15.053-24.22v-13.714Zm-7.569-27.361-33.218,48.5q3.171,2.169,6.364,4.3L1216.025,1004q-2.924-1.953-5.822-3.936Zm-17.2-12.2-34.812,47.37q3.1,2.277,6.216,4.515l34.284-47.759q-2.854-2.048-5.687-4.126Zm-16.778-12.763L1139.86,1021.3q3.019,2.378,6.059,4.718l35.857-46.592q-2.791-2.143-5.548-4.316ZM1159.885,961.8,1122,1006.757q2.937,2.473,5.9,4.912l37.379-45.375q-2.708-2.232-5.4-4.5Zm-15.894-13.841-39.349,43.679q2.854,2.568,5.729,5.1l38.867-44.111q-2.639-2.321-5.247-4.672ZM1128.57,933.6l-40.778,42.352q2.765,2.657,5.56,5.289l40.3-42.8q-2.556-2.4-5.087-4.841Zm-14.939-14.86-42.153,40.978q2.67,2.752,5.378,5.47l41.7-41.439q-2.48-2.492-4.926-5.01ZM1099.2,903.4l-43.489,39.562q2.581,2.835,5.193,5.644l43.049-40.039q-2.391-2.568-4.753-5.166Zm-13.916-15.807-44.774,38.1q2.486,2.917,5,5.813l44.351-38.594q-2.3-2.651-4.579-5.318Zm-13.379-16.259-46.013,36.594q2.385,3.006,4.8,5.974l45.607-37.1q-2.214-2.72-4.4-5.466Zm-12.833-16.686-47.2,35.047q2.283,3.076,4.6,6.13l46.812-35.571q-2.125-2.79-4.216-5.606Zm-12.266-17.1-48.339,33.461q2.182,3.152,4.4,6.278l47.967-34q-2.03-2.86-4.025-5.741Zm-11.687-17.494-49.425,31.838q2.074,3.221,4.186,6.417l49.07-32.383q-1.935-2.923-3.831-5.872Zm-11.1-17.87-50.457,30.181q1.966,3.285,3.97,6.553l50.119-30.739q-1.833-2.98-3.632-5.995Zm-10.495-18.221L962.09,812.441q1.858,3.355,3.751,6.68l51.113-29.048q-1.732-3.05-3.429-6.113Zm-9.877-18.555-52.356,26.752q1.744,3.405,3.522,6.8l52.055-27.331q-1.63-3.1-3.222-6.219ZM994.4,746.537l-53.218,24.985q1.63,3.469,3.294,6.912l52.939-25.577q-1.522-3.152-3.015-6.32Zm-8.609-19.159L931.76,750.57q1.51,3.519,3.061,7.018l53.764-23.8q-1.421-3.2-2.8-6.413Zm-7.962-19.434L923.05,729.322q1.4,3.564,2.825,7.111L980.4,714.449q-1.307-3.241-2.579-6.506Zm-7.307-19.675L915.058,707.8q1.275,3.608,2.584,7.2l55.235-20.144q-1.2-3.285-2.359-6.582Zm-6.643-19.908L907.8,686.023q1.148,3.646,2.338,7.28l55.878-18.289q-1.085-3.317-2.14-6.654ZM957.9,648.22,901.261,664q1.027,3.7,2.1,7.381l56.457-16.407q-.977-3.367-1.92-6.751Zm-5.307-20.373-57.138,13.866q.9,3.729,1.852,7.449l56.977-14.5q-.863-3.4-1.691-6.811Zm-4.626-20.538L890.4,619.248q.78,3.76,1.6,7.508l57.434-12.586q-.755-3.424-1.467-6.861Zm-3.932-20.69L886.1,596.631q.653,3.779,1.349,7.555l57.823-10.654q-.634-3.45-1.235-6.912Zm-3.235-20.8-58.242,8.066q.526,3.8,1.1,7.6l58.149-8.717q-.52-3.469-1-6.946Zm-2.545-20.91-58.474,6.126q.4,3.817.841,7.627l58.4-6.773q-.4-3.481-.77-6.98Zm-1.848-20.986-58.648,4.185q.273,3.83.592,7.648l58.6-4.828q-.292-3.5-.541-7.005Zm-1.15-21.036L876.5,505.133q.146,3.837.334,7.66l58.724-2.892q-.171-3.507-.3-7.018Zm-.461-21.045-58.8.326q.019,3.837.08,7.665l58.791-.968q-.057-3.507-.076-7.022ZM875.988,467.3h58.8v-7.348h-58.8Zm0-22.043h58.8v-7.348h-58.8Zm0-22.047h58.8v-7.348h-58.8Zm0-22.043h58.8v-7.348h-58.8Zm0-22.043h58.8v-7.348h-58.8Zm0-22.047h58.8v-7.348h-58.8Zm0-22.043h58.8v-7.348h-58.8Zm0-22.047h58.8v-7.348h-58.8Zm0-22.043h58.8V283.6h-58.8Zm0-22.047h58.8v-7.348h-58.8Zm0-22.043h58.8v-7.348h-58.8Z"/>
          <path id="Fill-36" class="cls-2" d="M790.2,66.242h-28l26.689,6q.672-2.993,1.315-6M732.993,52.566q-.71,3.393-1.476,6.777l12.178,2.739V58.861h19.248l-29.95-6.295"/>
          <path id="Fill-37" class="cls-2" d="M762.942,58.861H743.695v3.221l18.5,4.16h28c.11-.528.224-1.053.334-1.581l-27.59-5.8"/>
          <path id="Fill-38" class="cls-2" d="M785,88.386H759.073l24.2,6.523q.882-3.253,1.721-6.523M728.274,72.875q-.856,3.374-1.763,6.735l17.184,4.633V81h16.529l-31.95-8.13"/>
          <path id="Fill-39" class="cls-2" d="M760.224,81H743.695v3.238l15.379,4.143H785c.085-.334.169-.672.258-1.01L760.224,81"/>
          <path id="Fill-40" class="cls-2" d="M778.82,110.53H755.209l21.518,6.785q1.066-3.386,2.093-6.785M722.7,92.986q-1,3.336-2.047,6.65l23.04,7.267v-3.75h12.9L722.7,92.986"/>
          <path id="Fill-41" class="cls-2" d="M756.6,103.153h-12.9v3.75l11.514,3.627H778.82c.068-.216.131-.435.2-.655L756.6,103.153"/>
          <path id="Fill-42" class="cls-2" d="M771.636,132.679H750.629l18.613,6.739q1.218-3.361,2.393-6.739m-55.349-19.84q-1.142,3.291-2.326,6.557l29.734,10.768V125.3h8.554l-35.962-12.459"/>
          <path id="Fill-43" class="cls-2" d="M752.249,125.3h-8.554v4.866l6.935,2.515h21.007c.068-.2.135-.4.207-.6L752.249,125.3"/>
          <path id="Fill-44" class="cls-2" d="M763.4,154.823H745.357l15.48,6.354q1.3-3.171,2.562-6.354M709.043,132.4q-1.275,3.24-2.6,6.451l37.248,15.3v-6.7h3.51L709.043,132.4"/>
          <path id="Fill-45" class="cls-2" d="M747.2,147.441h-3.51v6.7l1.662.681H763.4l.342-.862L747.2,147.441"/>
          <path id="Fill-46" class="cls-2" d="M700.988,151.631q-1.414,3.177-2.867,6.333l53.4,24.592q1.288-2.79,2.537-5.589H743.695v-6.392l-42.707-18.944"/>
          <path id="Fill-47" class="cls-2" d="M743.695,170.575v6.392h10.368c.224-.5.444-1,.668-1.5l-11.036-4.9"/>
          <path id="Fill-48" class="cls-2" d="M692.134,170.5q-1.541,3.12-3.129,6.206l52.33,26.807q1.192-2.327,2.359-4.663v-2.837L692.134,170.5"/>
          <path id="Fill-49" class="cls-2" d="M743.695,196.016v2.837c.381-.757.757-1.518,1.133-2.274l-1.133-.562"/>
          <path id="Fill-50" class="cls-2" d="M660.958,224.658q-1.922,2.9-3.877,5.766l8.465,5.775H670.2v3.175l35.451,24.182q2.188-3.209,4.33-6.443l-49.024-32.455M672.1,207.05q-1.795,2.974-3.632,5.923l49.9,31.077q2.055-3.291,4.063-6.62L672.1,207.05m10.4-18.064q-1.674,3.05-3.383,6.071l51.159,28.972q1.915-3.38,3.784-6.785L682.5,188.986"/>
          <path id="Fill-51" class="cls-2" d="M670.2,236.2h-4.655l4.655,3.175V236.2"/>
          <path id="Fill-52" class="cls-2" d="M651.537,243.56h-3.729q-1.4,1.921-2.825,3.83l14.634,10.9H670.2v7.36h-.7l22.634,16.86q2.315-3.114,4.592-6.257L651.537,243.56"/>
          <path id="Fill-53" class="cls-2" d="M670.2,258.289H659.618l9.882,7.36h.7v-7.36m-21.108-16.5c-.427.592-.854,1.179-1.285,1.771h3.729l-2.444-1.771"/>
          <path id="Fill-54" class="cls-2" d="M670.2,284.969v2.765h-8.558l16.2,13.144q2.448-3.012,4.85-6.058l-12.491-9.85m-24.495-19.32H634.429l18.148,14.725h11.8l-18.672-14.725"/>
          <path id="Fill-55" class="cls-2" d="M664.379,280.374h-11.8l9.066,7.36H670.2v-2.765l-5.823-4.6m-27.848-21.962q-2.15,2.727-4.338,5.42l2.237,1.818h11.277l-9.176-7.238"/>
          <path id="Fill-56" class="cls-2" d="M664.442,309.814H652.814l10,8.819q2.562-2.9,5.091-5.847l-3.459-2.972m-25.725-22.081H627.8l16.685,14.725h11.391l-17.155-14.725m-15.425-13.241q-2.264,2.632-4.562,5.238l.732.643h10.685l-6.854-5.881"/>
          <path id="Fill-57" class="cls-2" d="M655.872,302.458H644.48l8.334,7.356h11.628l-8.571-7.356m-25.725-22.085H619.461l8.334,7.36h10.922l-8.571-7.36"/>
          <path id="Fill-58" class="cls-2" d="M650.717,331.9h-7.683l4.021,3.856q1.839-1.921,3.662-3.856m-20.093-22.081H620.015l15.349,14.725H646.4l-15.78-14.725m-21.226-19.8q-2.372,2.537-4.774,5.039l7.721,7.407h10.393L609.4,290.012"/>
          <path id="Fill-59" class="cls-2" d="M646.4,324.539h-11.04l7.67,7.356h7.683q.837-.888,1.666-1.78l-5.979-5.576m-23.666-22.081H612.345l7.67,7.356h10.609l-7.886-7.356"/>
          <path id="Fill-60" class="cls-2" d="M594.873,304.936q-2.467,2.441-4.973,4.841l35.353,36.839h10.74L621.469,331.9H611.406v-7.356h2.808l-19.341-19.6"/>
          <path id="Fill-61" class="cls-2" d="M635.994,346.616h-10.74l5.353,5.576q2.8-2.682,5.556-5.4l-.169-.173m-21.78-22.076h-2.808V331.9h10.064l-7.256-7.356"/>
          <path id="Fill-62" class="cls-2" d="M0,610.628V629.75l8.964,21.527,6.787-2.824L0,610.628m13.505-24.917-6.787,2.824,22.6,54.27L36.1,639.98l-22.6-54.27m20.355-8.472-6.787,2.824,22.6,54.27,6.782-2.824-22.6-54.27m20.355-8.472-6.787,2.824,22.6,54.269,6.782-2.824-22.6-54.27m20.355-8.472-6.787,2.824,22.6,54.27,6.782-2.824-22.6-54.27m20.355-8.476-6.787,2.824,22.6,54.27,6.787-2.824-22.6-54.27m20.355-8.472L108.5,546.17l22.6,54.27,6.787-2.824-22.6-54.269m20.351-8.472-6.782,2.824,22.6,54.27,6.787-2.824-22.6-54.27m20.355-8.472-6.782,2.824,22.6,54.27,6.787-2.824-22.6-54.27m20.355-8.472-6.782,2.824,22.6,54.27,6.787-2.824-22.6-54.27m20.355-8.472-6.787,2.824,22.6,54.27,6.787-2.824-22.6-54.27m20.355-8.476-6.787,2.824,22.6,54.27,6.782-2.824-22.6-54.27m20.355-8.472-6.787,2.824,22.6,54.27,6.782-2.824-22.6-54.27m20.355-8.472-6.787,2.824,22.6,54.27,6.782-2.824-22.6-54.27m20.355-8.472-6.787,2.824,22.6,54.27,6.782-2.824-22.6-54.27m20.355-8.472-6.787,2.824,22.6,54.27,6.787-2.824-22.6-54.27m20.351-8.472-6.782,2.82,22.6,54.274,6.787-2.824-22.6-54.27m20.355-8.476-6.782,2.824,22.6,54.27,6.787-2.824-22.6-54.27m20.355-8.472-6.782,2.824,22.6,54.27,6.787-2.824-22.6-54.27m20.355-8.472-6.782,2.824,22.6,54.27,6.787-2.824-22.6-54.27m20.355-8.472-6.787,2.824,22.6,54.27L422.85,479l-22.6-54.27m20.355-8.472-6.787,2.824,22.6,54.27,6.782-2.824-22.6-54.27m19.823-7.491q-3.184,1.363-6.389,2.685l22.381,54.358q3.584-1.478,7.146-3l-23.138-54.045m18.922-8.569q-3.121,1.49-6.262,2.942l24.639,53.378q3.514-1.623,7-3.293L459.349,400.2M477.9,390.84q-3.057,1.623-6.14,3.2l26.842,52.3q3.444-1.769,6.863-3.581L477.9,390.84m18.148-10.125q-2.987,1.75-6,3.458l29,51.137q3.368-1.909,6.71-3.864l-29.709-50.731m17.721-10.873q-2.911,1.871-5.856,3.708l31.1,49.885q3.285-2.048,6.546-4.143l-31.793-49.45m17.26-11.6q-2.835,1.991-5.7,3.949l33.15,48.55q3.2-2.181,6.368-4.409l-33.818-48.089m16.77-12.315q-2.753,2.105-5.535,4.181l35.138,47.133q3.108-2.315,6.182-4.672L547.8,345.922m16.25-13q-2.664,2.219-5.357,4.409l37.057,45.637q3.013-2.441,5.983-4.925l-37.683-45.121m15.7-13.672q-2.569,2.334-5.171,4.629L613.5,367.94q2.9-2.562,5.772-5.166l-39.518-43.527"/>
        </g>
      </g>
    </g>
  </g>
</svg>
