<svg xmlns="http://www.w3.org/2000/svg" viewBox="222 525 65 55.3">
  <defs>
    <style>
      .cls-1 {
        fill: #673165;
      }
    </style>
  </defs>
  <g id="noun_986244_cc" transform="translate(222 520.1)">
    <g id="Group_1" data-name="Group 1">
      <path id="Path_1" data-name="Path 1" class="cls-1" d="M0,4.9V60.2H65V4.9ZM63.5,6.4v9.8H1.5V6.4ZM7.3,52.9a25.2,25.2,0,1,1,50.4,0,22.244,22.244,0,0,1-.7,5.7H54.4a22.244,22.244,0,0,0,.7-5.7,22.7,22.7,0,1,0-45.4,0,27.763,27.763,0,0,0,.7,5.7H7.9A26.217,26.217,0,0,1,7.3,52.9ZM12,58.6a27.447,27.447,0,0,1-.8-5H14V52.1H11.3a20.363,20.363,0,0,1,2.5-9.2l2.4,1.4.7-1.3-2.4-1.4a22.06,22.06,0,0,1,6.8-6.8l1.4,2.4,1.3-.7-1.4-2.4a22.122,22.122,0,0,1,9.2-2.5v2.7h1.5V31.6a20.363,20.363,0,0,1,9.2,2.5l-1.4,2.4,1.3.7,1.4-2.4a22.06,22.06,0,0,1,6.8,6.8L48.2,43l.7,1.3,2.4-1.4a22.122,22.122,0,0,1,2.5,9.2H51v1.5h2.7a21.711,21.711,0,0,1-.8,5Zm46.6,0a27.6,27.6,0,0,0,.6-5.7,26.7,26.7,0,0,0-53.4,0,27.6,27.6,0,0,0,.6,5.7H1.5v-41h62v41Z"/>
      <path id="Path_2" data-name="Path 2" class="cls-1" d="M42.6,41.7l-8.9,8.9a2.723,2.723,0,0,0-3.1.4,2.451,2.451,0,0,0-.4,3.1L28,56.4l1.1,1.1,2.2-2.2a2.768,2.768,0,0,0,1.3.3,2.732,2.732,0,0,0,2.7-2.7,2.768,2.768,0,0,0-.3-1.3l8.9-8.9ZM33.3,53.8a1.217,1.217,0,0,1-1.6,0,1.04,1.04,0,0,1,0-1.6,1.132,1.132,0,0,1,1.6,1.6Z"/>
      <path id="Path_3" data-name="Path 3" class="cls-1" d="M57.9,13.8a2.6,2.6,0,1,0-2.6-2.6A2.582,2.582,0,0,0,57.9,13.8Zm0-3.7a1.1,1.1,0,1,1-1.1,1.1A1.11,1.11,0,0,1,57.9,10.1Z"/>
      <path id="Path_4" data-name="Path 4" class="cls-1" d="M51,13.8a2.6,2.6,0,1,0-2.6-2.6A2.647,2.647,0,0,0,51,13.8Zm0-3.7a1.1,1.1,0,1,1-1.1,1.1A1.11,1.11,0,0,1,51,10.1Z"/>
      <path id="Path_5" data-name="Path 5" class="cls-1" d="M44.2,13.8a2.6,2.6,0,1,0-2.6-2.6A2.582,2.582,0,0,0,44.2,13.8Zm0-3.7a1.1,1.1,0,1,1-1.1,1.1A1.049,1.049,0,0,1,44.2,10.1Z"/>
      <path id="Path_6" data-name="Path 6" class="cls-1" d="M38.4,8.6H4v5.2H38.4Zm-1.5,3.7H5.4V10.1H36.8v2.2Z"/>
    </g>
  </g>
</svg>
